<svg width="50" height="50" viewBox="0 0 50 50" fill="none" xmlns="http://www.w3.org/2000/svg">
<path d="M22.6979 13.6384C22.9765 13.9959 23.3236 14.2941 23.7189 14.5157C24.1142 14.7374 24.5497 14.8779 25 14.929C25.8733 14.9594 26.7287 14.6772 27.4125 14.1332C30.6104 11.8374 33.0479 13.8207 32.9646 17.0374C32.9156 18.9332 33.026 21.5342 32.9885 23.3926C32.9 27.7301 28.9 30.3842 25 30.3842C21.5792 30.3842 19.6875 28.1051 17.6354 25.7217C14.351 21.9082 11.3896 18.1905 8.79583 18.1905C6.85938 18.1905 5.96667 18.979 4.64062 21.3697V12.7082C4.64062 8.96341 7.3875 6.3457 11.7156 6.3457C16.3594 6.3457 20.1865 11.0749 22.6979 13.6384Z" stroke="#0A265C" stroke-linecap="round" stroke-linejoin="round"/>
<path d="M4.64062 21.3699L4.80729 38.071C4.80729 39.7088 5.45793 41.2796 6.61606 42.4377C7.77419 43.5958 9.34496 44.2465 10.9828 44.2465C12.6207 44.2465 14.1914 43.5958 15.3496 42.4377C16.5077 41.2796 17.1583 39.7088 17.1583 38.071L17.1375 25.1407M32.9885 23.3928L32.9156 38.0699C32.9156 39.7076 33.5662 41.2783 34.7242 42.4363C35.8823 43.5943 37.4529 44.2449 39.0906 44.2449C40.7283 44.2449 42.299 43.5943 43.457 42.4363C44.615 41.2783 45.2656 39.7076 45.2656 38.0699V12.2949C45.2656 10.5345 43.7187 6.347 39.4083 6.347C38.2199 6.26546 37.0282 6.44883 35.9193 6.88387C34.8103 7.31891 33.8118 7.99476 32.9958 8.86262C31.0427 10.6689 29.3833 12.3668 27.4125 14.1355" stroke="#0A265C" stroke-linecap="round" stroke-linejoin="round"/>
</svg>
