<svg width="50" height="50" viewBox="0 0 50 50" fill="none" xmlns="http://www.w3.org/2000/svg">
<g clip-path="url(#clip0_162_150)">
<path d="M44.9015 8.33299C44.7122 8.31348 44.5213 8.31348 44.332 8.33299H5.44314C5.1939 8.33683 4.9463 8.3742 4.70703 8.4441L24.7765 28.4302L44.9015 8.33299Z" fill="#0A265C"/>
<path d="M46.9575 10.2637L26.7352 30.4026C26.2148 30.9199 25.5108 31.2103 24.7769 31.2103C24.0431 31.2103 23.339 30.9199 22.8186 30.4026L2.77691 10.4164C2.7153 10.6429 2.68263 10.8762 2.67969 11.1109V38.8887C2.67969 39.6254 2.97235 40.3319 3.49328 40.8529C4.01421 41.3738 4.72075 41.6664 5.45747 41.6664H44.3464C45.0831 41.6664 45.7896 41.3738 46.3105 40.8529C46.8315 40.3319 47.1241 39.6254 47.1241 38.8887V11.1109C47.1131 10.8215 47.0568 10.5357 46.9575 10.2637ZM7.36024 38.8887H5.42969V36.9026L15.5269 26.8887L17.4852 28.847L7.36024 38.8887ZM44.3186 38.8887H42.3741L32.2491 28.847L34.2075 26.8887L44.3047 36.9026L44.3186 38.8887Z" fill="#0A265C"/>
</g>
<defs>
<clipPath id="clip0_162_150">
<rect width="50" height="50" fill="white"/>
</clipPath>
</defs>
</svg>
