<svg width="46" height="41" viewBox="0 0 46 41" fill="none" xmlns="http://www.w3.org/2000/svg">
<g clip-path="url(#clip0_81_296)">
<path d="M2.875 20.5C2.875 25.2573 4.99531 29.8198 8.76948 33.1837C12.5436 36.5477 17.6625 38.4375 23 38.4375C28.3375 38.4375 33.4564 36.5477 37.2305 33.1837C41.0047 29.8198 43.125 25.2573 43.125 20.5C43.125 15.7427 41.0047 11.1802 37.2305 7.81627C33.4564 4.45234 28.3375 2.5625 23 2.5625C17.6625 2.5625 12.5436 4.45234 8.76948 7.81627C4.99531 11.1802 2.875 15.7427 2.875 20.5ZM46 20.5C46 25.9369 43.5768 31.1512 39.2635 34.9957C34.9501 38.8402 29.1 41 23 41C16.9 41 11.0499 38.8402 6.73654 34.9957C2.42321 31.1512 0 25.9369 0 20.5C0 15.0631 2.42321 9.84881 6.73654 6.00431C11.0499 2.15982 16.9 0 23 0C29.1 0 34.9501 2.15982 39.2635 6.00431C43.5768 9.84881 46 15.0631 46 20.5ZM23.4198 12.792C19.9352 12.792 17.8796 15.1495 17.8796 19.2034V21.9196C17.8796 25.9453 19.9007 28.2285 23.4198 28.2285C26.2344 28.2285 28.1376 26.7269 28.3906 24.5949H32.1138V24.8332C31.8263 28.5437 28.221 31.1549 23.4025 31.1549C17.3909 31.1549 14.0041 27.7314 14.0041 21.9222V19.1726C14.0041 13.3788 17.457 9.85025 23.4054 9.85025C28.2382 9.85025 31.8435 12.5511 32.1138 16.441V16.6665H28.3906C28.1376 14.4141 26.1826 12.792 23.4198 12.792Z" fill="#9E8948"/>
</g>
<defs>
<clipPath id="clip0_81_296">
<rect width="46" height="41" fill="white"/>
</clipPath>
</defs>
</svg>
