<svg xmlns="http://www.w3.org/2000/svg" xmlns:xlink="http://www.w3.org/1999/xlink" width="500" zoomAndPan="magnify" viewBox="0 0 375 374.999991" height="500" preserveAspectRatio="xMidYMid meet" version="1.0"><defs><g/><clipPath id="22223519bc"><path d="M 69 77 L 271 77 L 271 292 L 69 292 Z M 69 77 " clip-rule="nonzero"/></clipPath><clipPath id="e518d1c3a7"><path d="M 208.40625 16.800781 L 322.148438 228.132812 L 129.308594 331.925781 L 15.5625 120.59375 Z M 208.40625 16.800781 " clip-rule="nonzero"/></clipPath><clipPath id="5906260d44"><path d="M 208.40625 16.800781 L 322.148438 228.132812 L 129.308594 331.925781 L 15.5625 120.59375 Z M 208.40625 16.800781 " clip-rule="nonzero"/></clipPath></defs><rect x="-37.5" width="450" fill="#ffffff" y="-37.499999" height="449.999989" fill-opacity="1"/><rect x="-37.5" width="450" fill="#0a265c" y="-37.499999" height="449.999989" fill-opacity="1"/><g clip-path="url(#22223519bc)"><g clip-path="url(#e518d1c3a7)"><g clip-path="url(#5906260d44)"><path fill="#d0cbc1" d="M 227.292969 277.691406 C 179.566406 304.472656 118.414062 289.664062 87.773438 244.402344 C 86.296875 242.210938 84.898438 239.964844 83.585938 237.667969 C 82.269531 235.375 81.042969 233.03125 79.902344 230.644531 C 78.757812 228.257812 77.707031 225.835938 76.742188 223.371094 C 75.78125 220.90625 74.910156 218.410156 74.128906 215.882812 C 73.351562 213.355469 72.667969 210.800781 72.074219 208.222656 C 71.484375 205.644531 70.988281 203.046875 70.589844 200.433594 C 70.1875 197.816406 69.886719 195.191406 69.679688 192.554688 C 69.472656 189.917969 69.363281 187.273438 69.351562 184.628906 C 69.339844 181.984375 69.425781 179.34375 69.609375 176.703125 C 69.792969 174.0625 70.070312 171.433594 70.449219 168.816406 C 70.824219 166.199219 71.296875 163.597656 71.867188 161.015625 C 72.433594 158.429688 73.097656 155.871094 73.851562 153.335938 C 74.609375 150.800781 75.457031 148.296875 76.398438 145.824219 C 77.339844 143.351562 78.371094 140.917969 79.492188 138.523438 C 80.613281 136.125 81.820312 133.773438 83.113281 131.464844 C 84.40625 129.160156 85.78125 126.902344 87.242188 124.695312 C 132.757812 57.578125 232.359375 62.167969 270.359375 134.089844 C 268.867188 131.675781 265.621094 126.441406 264.050781 124.242188 L 258.082031 116.570312 C 253.59375 111.472656 248.679688 106.824219 243.339844 102.625 C 238 98.425781 232.324219 94.746094 226.3125 91.585938 C 224.175781 90.480469 222 89.453125 219.792969 88.5 C 217.582031 87.542969 215.34375 86.667969 213.078125 85.863281 C 210.808594 85.0625 208.515625 84.339844 206.195312 83.695312 C 203.878906 83.050781 201.539062 82.488281 199.183594 82.003906 C 196.828125 81.519531 194.457031 81.113281 192.074219 80.792969 C 189.6875 80.46875 187.296875 80.230469 184.894531 80.070312 C 182.492188 79.910156 180.089844 79.835938 177.683594 79.839844 C 175.277344 79.84375 172.875 79.933594 170.476562 80.101562 C 168.074219 80.273438 165.683594 80.523438 163.300781 80.855469 C 160.917969 81.191406 158.550781 81.605469 156.195312 82.101562 C 153.839844 82.59375 151.503906 83.171875 149.191406 83.824219 C 146.875 84.480469 144.585938 85.214844 142.320312 86.027344 C 140.054688 86.835938 137.820312 87.726562 135.617188 88.691406 C 133.410156 89.652344 131.242188 90.691406 129.109375 91.804688 C 126.976562 92.917969 124.882812 94.101562 122.832031 95.359375 C 120.777344 96.613281 118.773438 97.9375 116.808594 99.332031 C 80.597656 124.652344 64.402344 172.75 77.355469 214.847656 C 77.773438 216.144531 80.175781 222.757812 80.511719 223.863281 C 84.792969 233.9375 90.398438 243.214844 97.332031 251.6875 C 99.238281 253.679688 101.925781 256.800781 103.84375 258.894531 C 108.699219 263.601562 113.933594 267.832031 119.554688 271.585938 C 125.179688 275.339844 131.09375 278.558594 137.296875 281.238281 C 142.828125 283.511719 148.503906 285.320312 154.332031 286.65625 C 160.15625 287.996094 166.054688 288.84375 172.019531 289.207031 C 177.988281 289.570312 183.945312 289.441406 189.890625 288.816406 C 195.835938 288.195312 201.691406 287.089844 207.453125 285.496094 C 210.121094 284.640625 213.984375 283.222656 216.660156 282.382812 C 219.335938 281.542969 224.78125 278.71875 227.351562 277.636719 Z M 227.292969 277.691406 " fill-opacity="1" fill-rule="nonzero"/></g></g></g><g fill="#d0cbc1" fill-opacity="1"><g transform="translate(110.2611, 196.874987)"><g><path d="M 1.234375 0 L 1.234375 -1.140625 L 2.109375 -1.140625 C 3.453125 -1.140625 4.273438 -1.25 4.578125 -1.46875 C 4.878906 -1.695312 5.03125 -2.171875 5.03125 -2.890625 L 5.03125 -22.265625 C 5.03125 -22.972656 4.875 -23.4375 4.5625 -23.65625 C 4.25 -23.882812 3.429688 -24 2.109375 -24 L 1.234375 -24 L 1.234375 -25.15625 L 21.53125 -25.15625 L 22.5625 -16.828125 L 21.640625 -16.828125 C 21.460938 -18.234375 21.265625 -19.335938 21.046875 -20.140625 C 20.828125 -20.941406 20.460938 -21.660156 19.953125 -22.296875 C 19.453125 -22.941406 18.773438 -23.382812 17.921875 -23.625 C 17.078125 -23.875 15.960938 -24 14.578125 -24 L 10.125 -24 C 9.28125 -24 8.769531 -23.910156 8.59375 -23.734375 C 8.414062 -23.554688 8.328125 -23.148438 8.328125 -22.515625 L 8.328125 -13.171875 L 11.5 -13.171875 C 13.175781 -13.171875 14.25 -13.46875 14.71875 -14.0625 C 15.1875 -14.664062 15.421875 -15.8125 15.421875 -17.5 L 16.34375 -17.5 L 16.34375 -7.6875 L 15.421875 -7.6875 C 15.421875 -9.382812 15.1875 -10.53125 14.71875 -11.125 C 14.25 -11.726562 13.175781 -12.03125 11.5 -12.03125 L 8.328125 -12.03125 L 8.328125 -2.921875 C 8.328125 -2.410156 8.367188 -2.050781 8.453125 -1.84375 C 8.535156 -1.644531 8.832031 -1.476562 9.34375 -1.34375 C 9.863281 -1.207031 10.691406 -1.140625 11.828125 -1.140625 L 13.0625 -1.140625 L 13.0625 0 C 12.164062 -0.0703125 10.09375 -0.109375 6.84375 -0.109375 C 3.96875 -0.109375 2.097656 -0.0703125 1.234375 0 Z M 1.234375 0 "/></g></g></g><g fill="#d0cbc1" fill-opacity="1"><g transform="translate(134.369565, 196.874987)"><g><path d="M 1.234375 0 L 1.234375 -1.140625 C 2.546875 -1.140625 3.347656 -1.21875 3.640625 -1.375 C 3.941406 -1.539062 4.09375 -2.019531 4.09375 -2.8125 L 4.09375 -22.046875 C 4.09375 -22.960938 3.929688 -23.535156 3.609375 -23.765625 C 3.296875 -23.992188 2.503906 -24.109375 1.234375 -24.109375 L 1.234375 -25.265625 L 6.53125 -25.65625 L 6.53125 -2.8125 C 6.53125 -2.019531 6.6875 -1.539062 7 -1.375 C 7.3125 -1.21875 8.117188 -1.140625 9.421875 -1.140625 L 9.421875 0 C 9.117188 0 8.65625 -0.0078125 8.03125 -0.03125 C 7.40625 -0.0625 6.863281 -0.0820312 6.40625 -0.09375 C 5.945312 -0.101562 5.585938 -0.109375 5.328125 -0.109375 C 5.035156 -0.109375 3.671875 -0.0703125 1.234375 0 Z M 1.234375 0 "/></g></g></g><g fill="#d0cbc1" fill-opacity="1"><g transform="translate(144.608891, 196.874987)"><g><path d="M 1.03125 -8.140625 C 1.03125 -10.460938 1.773438 -12.445312 3.265625 -14.09375 C 4.765625 -15.75 6.582031 -16.578125 8.71875 -16.578125 C 10.882812 -16.578125 12.53125 -15.875 13.65625 -14.46875 C 14.78125 -13.0625 15.34375 -11.34375 15.34375 -9.3125 C 15.34375 -8.945312 15.296875 -8.726562 15.203125 -8.65625 C 15.109375 -8.582031 14.847656 -8.546875 14.421875 -8.546875 L 4.09375 -8.546875 C 4.09375 -6.023438 4.46875 -4.175781 5.21875 -3 C 6.25 -1.351562 7.640625 -0.53125 9.390625 -0.53125 C 9.628906 -0.53125 9.894531 -0.550781 10.1875 -0.59375 C 10.476562 -0.644531 10.914062 -0.773438 11.5 -0.984375 C 12.09375 -1.191406 12.644531 -1.578125 13.15625 -2.140625 C 13.675781 -2.710938 14.085938 -3.441406 14.390625 -4.328125 C 14.460938 -4.679688 14.617188 -4.851562 14.859375 -4.84375 C 15.179688 -4.84375 15.34375 -4.695312 15.34375 -4.40625 C 15.34375 -4.1875 15.222656 -3.832031 14.984375 -3.34375 C 14.753906 -2.863281 14.414062 -2.332031 13.96875 -1.75 C 13.53125 -1.175781 12.878906 -0.671875 12.015625 -0.234375 C 11.160156 0.203125 10.210938 0.421875 9.171875 0.421875 C 7.003906 0.421875 5.101562 -0.398438 3.46875 -2.046875 C 1.84375 -3.691406 1.03125 -5.722656 1.03125 -8.140625 Z M 4.140625 -9.3125 L 12.90625 -9.3125 C 12.90625 -9.832031 12.859375 -10.378906 12.765625 -10.953125 C 12.679688 -11.535156 12.507812 -12.226562 12.25 -13.03125 C 11.988281 -13.832031 11.554688 -14.484375 10.953125 -14.984375 C 10.359375 -15.492188 9.613281 -15.75 8.71875 -15.75 C 8.320312 -15.75 7.910156 -15.660156 7.484375 -15.484375 C 7.054688 -15.316406 6.582031 -15.03125 6.0625 -14.625 C 5.550781 -14.21875 5.113281 -13.550781 4.75 -12.625 C 4.382812 -11.695312 4.179688 -10.59375 4.140625 -9.3125 Z M 4.140625 -9.3125 "/></g></g></g><g fill="#d0cbc1" fill-opacity="1"><g transform="translate(161.024319, 196.874987)"><g><path d="M 1.1875 0 L 1.1875 -1.140625 C 2.5 -1.140625 3.304688 -1.21875 3.609375 -1.375 C 3.910156 -1.539062 4.0625 -2.019531 4.0625 -2.8125 L 4.0625 -12.734375 C 4.0625 -13.648438 3.898438 -14.222656 3.578125 -14.453125 C 3.265625 -14.679688 2.46875 -14.796875 1.1875 -14.796875 L 1.1875 -15.953125 L 6.390625 -16.34375 L 6.390625 -12.453125 C 7.546875 -15.046875 9.367188 -16.34375 11.859375 -16.34375 C 14.753906 -16.34375 16.398438 -15.140625 16.796875 -12.734375 C 17.210938 -13.671875 17.863281 -14.503906 18.75 -15.234375 C 19.632812 -15.972656 20.769531 -16.34375 22.15625 -16.34375 C 24.007812 -16.34375 25.304688 -15.882812 26.046875 -14.96875 C 26.585938 -14.351562 26.910156 -13.703125 27.015625 -13.015625 C 27.117188 -12.328125 27.171875 -11.09375 27.171875 -9.3125 L 27.171875 -2.25 C 27.203125 -1.738281 27.414062 -1.425781 27.8125 -1.3125 C 28.207031 -1.195312 28.957031 -1.140625 30.0625 -1.140625 L 30.0625 0 C 27.550781 -0.0703125 26.175781 -0.109375 25.9375 -0.109375 C 25.738281 -0.109375 24.34375 -0.0703125 21.75 0 L 21.75 -1.140625 C 23.0625 -1.140625 23.867188 -1.21875 24.171875 -1.375 C 24.472656 -1.539062 24.625 -2.019531 24.625 -2.8125 L 24.625 -11.4375 C 24.625 -12.6875 24.429688 -13.679688 24.046875 -14.421875 C 23.660156 -15.160156 22.941406 -15.53125 21.890625 -15.53125 C 20.609375 -15.53125 19.457031 -14.992188 18.4375 -13.921875 C 17.414062 -12.847656 16.90625 -11.410156 16.90625 -9.609375 L 16.90625 -2.8125 C 16.90625 -2.019531 17.054688 -1.539062 17.359375 -1.375 C 17.671875 -1.21875 18.484375 -1.140625 19.796875 -1.140625 L 19.796875 0 C 17.273438 -0.0703125 15.890625 -0.109375 15.640625 -0.109375 C 15.441406 -0.109375 14.050781 -0.0703125 11.46875 0 L 11.46875 -1.140625 C 12.78125 -1.140625 13.585938 -1.21875 13.890625 -1.375 C 14.203125 -1.539062 14.359375 -2.019531 14.359375 -2.8125 L 14.359375 -11.4375 C 14.359375 -12.6875 14.164062 -13.679688 13.78125 -14.421875 C 13.394531 -15.160156 12.671875 -15.53125 11.609375 -15.53125 C 10.335938 -15.53125 9.1875 -14.992188 8.15625 -13.921875 C 7.132812 -12.847656 6.625 -11.410156 6.625 -9.609375 L 6.625 -2.8125 C 6.625 -2.019531 6.773438 -1.539062 7.078125 -1.375 C 7.390625 -1.21875 8.195312 -1.140625 9.5 -1.140625 L 9.5 0 C 6.976562 -0.0703125 5.597656 -0.109375 5.359375 -0.109375 C 5.171875 -0.109375 3.78125 -0.0703125 1.1875 0 Z M 1.1875 0 "/></g></g></g><g fill="#d0cbc1" fill-opacity="1"><g transform="translate(191.814531, 196.874987)"><g><path d="M 1.1875 0 L 1.1875 -1.140625 C 2.5 -1.140625 3.304688 -1.21875 3.609375 -1.375 C 3.910156 -1.539062 4.0625 -2.019531 4.0625 -2.8125 L 4.0625 -12.734375 C 4.0625 -13.648438 3.898438 -14.222656 3.578125 -14.453125 C 3.265625 -14.679688 2.46875 -14.796875 1.1875 -14.796875 L 1.1875 -15.953125 L 6.390625 -16.34375 L 6.390625 -12.453125 C 7.546875 -15.046875 9.367188 -16.34375 11.859375 -16.34375 C 14.753906 -16.34375 16.398438 -15.140625 16.796875 -12.734375 C 17.210938 -13.671875 17.863281 -14.503906 18.75 -15.234375 C 19.632812 -15.972656 20.769531 -16.34375 22.15625 -16.34375 C 24.007812 -16.34375 25.304688 -15.882812 26.046875 -14.96875 C 26.585938 -14.351562 26.910156 -13.703125 27.015625 -13.015625 C 27.117188 -12.328125 27.171875 -11.09375 27.171875 -9.3125 L 27.171875 -2.25 C 27.203125 -1.738281 27.414062 -1.425781 27.8125 -1.3125 C 28.207031 -1.195312 28.957031 -1.140625 30.0625 -1.140625 L 30.0625 0 C 27.550781 -0.0703125 26.175781 -0.109375 25.9375 -0.109375 C 25.738281 -0.109375 24.34375 -0.0703125 21.75 0 L 21.75 -1.140625 C 23.0625 -1.140625 23.867188 -1.21875 24.171875 -1.375 C 24.472656 -1.539062 24.625 -2.019531 24.625 -2.8125 L 24.625 -11.4375 C 24.625 -12.6875 24.429688 -13.679688 24.046875 -14.421875 C 23.660156 -15.160156 22.941406 -15.53125 21.890625 -15.53125 C 20.609375 -15.53125 19.457031 -14.992188 18.4375 -13.921875 C 17.414062 -12.847656 16.90625 -11.410156 16.90625 -9.609375 L 16.90625 -2.8125 C 16.90625 -2.019531 17.054688 -1.539062 17.359375 -1.375 C 17.671875 -1.21875 18.484375 -1.140625 19.796875 -1.140625 L 19.796875 0 C 17.273438 -0.0703125 15.890625 -0.109375 15.640625 -0.109375 C 15.441406 -0.109375 14.050781 -0.0703125 11.46875 0 L 11.46875 -1.140625 C 12.78125 -1.140625 13.585938 -1.21875 13.890625 -1.375 C 14.203125 -1.539062 14.359375 -2.019531 14.359375 -2.8125 L 14.359375 -11.4375 C 14.359375 -12.6875 14.164062 -13.679688 13.78125 -14.421875 C 13.394531 -15.160156 12.671875 -15.53125 11.609375 -15.53125 C 10.335938 -15.53125 9.1875 -14.992188 8.15625 -13.921875 C 7.132812 -12.847656 6.625 -11.410156 6.625 -9.609375 L 6.625 -2.8125 C 6.625 -2.019531 6.773438 -1.539062 7.078125 -1.375 C 7.390625 -1.21875 8.195312 -1.140625 9.5 -1.140625 L 9.5 0 C 6.976562 -0.0703125 5.597656 -0.109375 5.359375 -0.109375 C 5.171875 -0.109375 3.78125 -0.0703125 1.1875 0 Z M 1.1875 0 "/></g></g></g><g fill="#d0cbc1" fill-opacity="1"><g transform="translate(222.604743, 196.874987)"><g><path d="M 1.234375 0 L 1.234375 -1.140625 C 2.546875 -1.140625 3.347656 -1.21875 3.640625 -1.375 C 3.941406 -1.539062 4.09375 -2.019531 4.09375 -2.8125 L 4.09375 -12.765625 C 4.09375 -13.679688 3.9375 -14.25 3.625 -14.46875 C 3.320312 -14.6875 2.570312 -14.796875 1.375 -14.796875 L 1.375 -15.953125 L 6.53125 -16.34375 L 6.53125 -2.78125 C 6.53125 -2.039062 6.660156 -1.582031 6.921875 -1.40625 C 7.191406 -1.226562 7.929688 -1.140625 9.140625 -1.140625 L 9.140625 0 C 6.617188 -0.0703125 5.335938 -0.109375 5.296875 -0.109375 C 4.953125 -0.109375 3.597656 -0.0703125 1.234375 0 Z M 2.78125 -22.796875 C 2.78125 -23.285156 2.96875 -23.726562 3.34375 -24.125 C 3.726562 -24.53125 4.191406 -24.734375 4.734375 -24.734375 C 5.273438 -24.734375 5.738281 -24.550781 6.125 -24.1875 C 6.507812 -23.820312 6.703125 -23.351562 6.703125 -22.78125 C 6.703125 -22.207031 6.507812 -21.738281 6.125 -21.375 C 5.738281 -21.007812 5.273438 -20.828125 4.734375 -20.828125 C 4.160156 -20.828125 3.691406 -21.023438 3.328125 -21.421875 C 2.960938 -21.816406 2.78125 -22.273438 2.78125 -22.796875 Z M 2.78125 -22.796875 "/></g></g></g><g fill="#d0cbc1" fill-opacity="1"><g transform="translate(232.844069, 196.874987)"><g><path d="M 1.1875 0 L 1.1875 -1.140625 C 2.5 -1.140625 3.304688 -1.21875 3.609375 -1.375 C 3.910156 -1.539062 4.0625 -2.019531 4.0625 -2.8125 L 4.0625 -12.734375 C 4.0625 -13.648438 3.898438 -14.222656 3.578125 -14.453125 C 3.265625 -14.679688 2.46875 -14.796875 1.1875 -14.796875 L 1.1875 -15.953125 L 6.390625 -16.34375 L 6.390625 -12.453125 C 7.546875 -15.046875 9.367188 -16.34375 11.859375 -16.34375 C 13.710938 -16.34375 15.007812 -15.882812 15.75 -14.96875 C 16.289062 -14.351562 16.617188 -13.703125 16.734375 -13.015625 C 16.847656 -12.328125 16.90625 -11.09375 16.90625 -9.3125 L 16.90625 -2.25 C 16.925781 -1.738281 17.132812 -1.425781 17.53125 -1.3125 C 17.925781 -1.195312 18.679688 -1.140625 19.796875 -1.140625 L 19.796875 0 C 17.273438 -0.0703125 15.890625 -0.109375 15.640625 -0.109375 C 15.441406 -0.109375 14.050781 -0.0703125 11.46875 0 L 11.46875 -1.140625 C 12.78125 -1.140625 13.585938 -1.21875 13.890625 -1.375 C 14.203125 -1.539062 14.359375 -2.019531 14.359375 -2.8125 L 14.359375 -11.4375 C 14.359375 -12.6875 14.164062 -13.679688 13.78125 -14.421875 C 13.394531 -15.160156 12.671875 -15.53125 11.609375 -15.53125 C 10.335938 -15.53125 9.1875 -14.992188 8.15625 -13.921875 C 7.132812 -12.847656 6.625 -11.410156 6.625 -9.609375 L 6.625 -2.8125 C 6.625 -2.019531 6.773438 -1.539062 7.078125 -1.375 C 7.390625 -1.21875 8.195312 -1.140625 9.5 -1.140625 L 9.5 0 C 6.976562 -0.0703125 5.597656 -0.109375 5.359375 -0.109375 C 5.171875 -0.109375 3.78125 -0.0703125 1.1875 0 Z M 1.1875 0 "/></g></g></g><g fill="#d0cbc1" fill-opacity="1"><g transform="translate(253.358838, 196.874987)"><g><path d="M 1.03125 2.921875 C 1.03125 2.128906 1.332031 1.390625 1.9375 0.703125 C 2.550781 0.015625 3.382812 -0.476562 4.4375 -0.78125 C 3.351562 -1.46875 2.8125 -2.5625 2.8125 -4.0625 C 2.8125 -5.21875 3.191406 -6.242188 3.953125 -7.140625 C 2.796875 -8.097656 2.21875 -9.363281 2.21875 -10.9375 C 2.21875 -12.394531 2.796875 -13.660156 3.953125 -14.734375 C 5.109375 -15.804688 6.53125 -16.34375 8.21875 -16.34375 C 9.695312 -16.34375 11.003906 -15.894531 12.140625 -15 C 13.316406 -16.15625 14.617188 -16.742188 16.046875 -16.765625 C 16.691406 -16.765625 17.164062 -16.5625 17.46875 -16.15625 C 17.78125 -15.757812 17.9375 -15.351562 17.9375 -14.9375 C 17.9375 -14.5625 17.816406 -14.28125 17.578125 -14.09375 C 17.347656 -13.914062 17.109375 -13.828125 16.859375 -13.828125 C 16.566406 -13.828125 16.3125 -13.925781 16.09375 -14.125 C 15.882812 -14.320312 15.78125 -14.582031 15.78125 -14.90625 C 15.78125 -15.414062 15.976562 -15.75 16.375 -15.90625 C 16.300781 -15.9375 16.179688 -15.953125 16.015625 -15.953125 C 14.816406 -15.953125 13.703125 -15.46875 12.671875 -14.5 C 13.679688 -13.5625 14.1875 -12.363281 14.1875 -10.90625 C 14.1875 -9.445312 13.609375 -8.179688 12.453125 -7.109375 C 11.304688 -6.046875 9.894531 -5.515625 8.21875 -5.515625 C 6.832031 -5.515625 5.609375 -5.894531 4.546875 -6.65625 C 4.128906 -6.164062 3.921875 -5.582031 3.921875 -4.90625 C 3.921875 -4.289062 4.101562 -3.742188 4.46875 -3.265625 C 4.84375 -2.785156 5.316406 -2.507812 5.890625 -2.4375 C 6.054688 -2.414062 6.976562 -2.40625 8.65625 -2.40625 C 9.632812 -2.40625 10.394531 -2.390625 10.9375 -2.359375 C 11.476562 -2.335938 12.132812 -2.242188 12.90625 -2.078125 C 13.6875 -1.921875 14.382812 -1.6875 15 -1.375 C 16.601562 -0.476562 17.410156 0.929688 17.421875 2.859375 C 17.421875 4.265625 16.609375 5.410156 14.984375 6.296875 C 13.367188 7.179688 11.441406 7.625 9.203125 7.625 C 6.941406 7.625 5.015625 7.175781 3.421875 6.28125 C 1.828125 5.382812 1.03125 4.265625 1.03125 2.921875 Z M 2.96875 2.921875 C 2.96875 3.929688 3.5625 4.820312 4.75 5.59375 C 5.9375 6.375 7.4375 6.765625 9.25 6.765625 C 11.019531 6.765625 12.503906 6.382812 13.703125 5.625 C 14.898438 4.863281 15.5 3.960938 15.5 2.921875 C 15.5 2.191406 15.285156 1.59375 14.859375 1.125 C 14.441406 0.65625 13.800781 0.328125 12.9375 0.140625 C 12.070312 -0.046875 11.335938 -0.15625 10.734375 -0.1875 C 10.140625 -0.226562 9.289062 -0.25 8.1875 -0.25 L 6 -0.25 C 5.15625 -0.207031 4.4375 0.117188 3.84375 0.734375 C 3.257812 1.347656 2.96875 2.078125 2.96875 2.921875 Z M 4.984375 -10.90625 C 4.984375 -7.875 6.0625 -6.359375 8.21875 -6.359375 C 9.300781 -6.359375 10.171875 -6.851562 10.828125 -7.84375 C 11.234375 -8.5 11.4375 -9.53125 11.4375 -10.9375 C 11.4375 -13.976562 10.363281 -15.5 8.21875 -15.5 C 7.132812 -15.5 6.253906 -15.003906 5.578125 -14.015625 C 5.179688 -13.347656 4.984375 -12.3125 4.984375 -10.90625 Z M 4.984375 -10.90625 "/></g></g></g><g fill="#d0cbc1" fill-opacity="1"><g transform="translate(271.851024, 196.874987)"><g/></g></g><g fill="#d0cbc1" fill-opacity="1"><g transform="translate(284.14905, 196.874987)"><g><path d="M 1.34375 0 L 1.34375 -1.140625 L 2.21875 -1.140625 C 3.550781 -1.140625 4.367188 -1.25 4.671875 -1.46875 C 4.984375 -1.695312 5.140625 -2.171875 5.140625 -2.890625 L 5.140625 -22.375 C 5.140625 -23.082031 4.984375 -23.546875 4.671875 -23.765625 C 4.359375 -23.992188 3.539062 -24.109375 2.21875 -24.109375 L 1.34375 -24.109375 L 1.34375 -25.265625 L 14.859375 -25.265625 C 17.210938 -25.265625 19.171875 -24.632812 20.734375 -23.375 C 22.296875 -22.113281 23.078125 -20.660156 23.078125 -19.015625 C 23.078125 -17.648438 22.5 -16.425781 21.34375 -15.34375 C 20.195312 -14.257812 18.726562 -13.546875 16.9375 -13.203125 C 18.988281 -12.984375 20.691406 -12.253906 22.046875 -11.015625 C 23.398438 -9.785156 24.078125 -8.367188 24.078125 -6.765625 C 24.078125 -4.960938 23.296875 -3.382812 21.734375 -2.03125 C 20.179688 -0.675781 18.21875 0 15.84375 0 Z M 8.21875 -2.625 C 8.21875 -1.976562 8.304688 -1.566406 8.484375 -1.390625 C 8.671875 -1.222656 9.179688 -1.140625 10.015625 -1.140625 L 14.640625 -1.140625 C 16.410156 -1.140625 17.804688 -1.71875 18.828125 -2.875 C 19.859375 -4.039062 20.375 -5.351562 20.375 -6.8125 C 20.375 -8.269531 19.921875 -9.617188 19.015625 -10.859375 C 18.117188 -12.109375 16.835938 -12.734375 15.171875 -12.734375 L 8.21875 -12.734375 Z M 8.21875 -13.546875 L 13.578125 -13.546875 C 15.484375 -13.546875 16.941406 -14.113281 17.953125 -15.25 C 18.972656 -16.394531 19.484375 -17.648438 19.484375 -19.015625 C 19.484375 -20.222656 19.078125 -21.375 18.265625 -22.46875 C 17.453125 -23.5625 16.234375 -24.109375 14.609375 -24.109375 L 10.015625 -24.109375 C 9.179688 -24.109375 8.671875 -24.023438 8.484375 -23.859375 C 8.304688 -23.691406 8.21875 -23.28125 8.21875 -22.625 Z M 8.21875 -13.546875 "/></g></g></g><g fill="#d0cbc1" fill-opacity="1"><g transform="translate(310.316216, 196.874987)"><g><path d="M 3.46875 -1.984375 C 1.84375 -3.597656 1.03125 -5.578125 1.03125 -7.921875 C 1.03125 -10.265625 1.828125 -12.289062 3.421875 -14 C 5.015625 -15.71875 6.957031 -16.578125 9.25 -16.578125 C 11.488281 -16.578125 13.410156 -15.722656 15.015625 -14.015625 C 16.617188 -12.316406 17.421875 -10.28125 17.421875 -7.90625 C 17.421875 -5.582031 16.609375 -3.613281 14.984375 -2 C 13.367188 -0.382812 11.441406 0.421875 9.203125 0.421875 C 7.015625 0.421875 5.101562 -0.378906 3.46875 -1.984375 Z M 4.09375 -8.21875 C 4.09375 -5.820312 4.40625 -4.082031 5.03125 -3 C 6 -1.351562 7.40625 -0.53125 9.25 -0.53125 C 10.164062 -0.53125 11.003906 -0.773438 11.765625 -1.265625 C 12.523438 -1.753906 13.117188 -2.414062 13.546875 -3.25 C 14.085938 -4.332031 14.359375 -5.988281 14.359375 -8.21875 C 14.359375 -10.59375 14.03125 -12.300781 13.375 -13.34375 C 12.414062 -14.945312 11.023438 -15.75 9.203125 -15.75 C 8.410156 -15.75 7.625 -15.539062 6.84375 -15.125 C 6.070312 -14.707031 5.453125 -14.085938 4.984375 -13.265625 C 4.390625 -12.179688 4.09375 -10.5 4.09375 -8.21875 Z M 4.09375 -8.21875 "/></g></g></g><g fill="#d0cbc1" fill-opacity="1"><g transform="translate(328.808403, 196.874987)"><g><path d="M -1.484375 4.625 C -1.484375 4.125 -1.328125 3.710938 -1.015625 3.390625 C -0.710938 3.078125 -0.300781 2.921875 0.21875 2.921875 C 0.738281 2.921875 1.148438 3.078125 1.453125 3.390625 C 1.765625 3.710938 1.921875 4.125 1.921875 4.625 C 1.921875 5.070312 1.789062 5.4375 1.53125 5.71875 C 1.269531 6 0.96875 6.1875 0.625 6.28125 C 1.269531 6.601562 1.9375 6.765625 2.625 6.765625 C 3.1875 6.765625 3.660156 6.597656 4.046875 6.265625 C 4.429688 5.929688 4.707031 5.484375 4.875 4.921875 C 5.050781 4.367188 5.171875 3.859375 5.234375 3.390625 C 5.296875 2.929688 5.328125 2.441406 5.328125 1.921875 L 5.328125 -12.734375 C 5.328125 -13.648438 5.148438 -14.222656 4.796875 -14.453125 C 4.441406 -14.679688 3.5625 -14.796875 2.15625 -14.796875 L 2.15625 -15.953125 L 7.765625 -16.34375 L 7.765625 1.84375 C 7.765625 3.488281 7.269531 4.851562 6.28125 5.9375 C 5.289062 7.03125 4.097656 7.578125 2.703125 7.578125 C 1.578125 7.578125 0.597656 7.3125 -0.234375 6.78125 C -1.066406 6.257812 -1.484375 5.539062 -1.484375 4.625 Z M 4.421875 -21.390625 C 4.035156 -21.765625 3.84375 -22.222656 3.84375 -22.765625 C 3.84375 -23.304688 4.035156 -23.769531 4.421875 -24.15625 C 4.804688 -24.539062 5.269531 -24.734375 5.8125 -24.734375 C 6.351562 -24.734375 6.816406 -24.539062 7.203125 -24.15625 C 7.585938 -23.769531 7.78125 -23.304688 7.78125 -22.765625 C 7.78125 -22.222656 7.585938 -21.765625 7.203125 -21.390625 C 6.816406 -21.015625 6.351562 -20.828125 5.8125 -20.828125 C 5.269531 -20.828125 4.804688 -21.015625 4.421875 -21.390625 Z M 4.421875 -21.390625 "/></g></g></g><g fill="#d0cbc1" fill-opacity="1"><g transform="translate(340.077079, 196.874987)"><g><path d="M 1.03125 -8.140625 C 1.03125 -10.460938 1.773438 -12.445312 3.265625 -14.09375 C 4.765625 -15.75 6.582031 -16.578125 8.71875 -16.578125 C 10.882812 -16.578125 12.53125 -15.875 13.65625 -14.46875 C 14.78125 -13.0625 15.34375 -11.34375 15.34375 -9.3125 C 15.34375 -8.945312 15.296875 -8.726562 15.203125 -8.65625 C 15.109375 -8.582031 14.847656 -8.546875 14.421875 -8.546875 L 4.09375 -8.546875 C 4.09375 -6.023438 4.46875 -4.175781 5.21875 -3 C 6.25 -1.351562 7.640625 -0.53125 9.390625 -0.53125 C 9.628906 -0.53125 9.894531 -0.550781 10.1875 -0.59375 C 10.476562 -0.644531 10.914062 -0.773438 11.5 -0.984375 C 12.09375 -1.191406 12.644531 -1.578125 13.15625 -2.140625 C 13.675781 -2.710938 14.085938 -3.441406 14.390625 -4.328125 C 14.460938 -4.679688 14.617188 -4.851562 14.859375 -4.84375 C 15.179688 -4.84375 15.34375 -4.695312 15.34375 -4.40625 C 15.34375 -4.1875 15.222656 -3.832031 14.984375 -3.34375 C 14.753906 -2.863281 14.414062 -2.332031 13.96875 -1.75 C 13.53125 -1.175781 12.878906 -0.671875 12.015625 -0.234375 C 11.160156 0.203125 10.210938 0.421875 9.171875 0.421875 C 7.003906 0.421875 5.101562 -0.398438 3.46875 -2.046875 C 1.84375 -3.691406 1.03125 -5.722656 1.03125 -8.140625 Z M 4.140625 -9.3125 L 12.90625 -9.3125 C 12.90625 -9.832031 12.859375 -10.378906 12.765625 -10.953125 C 12.679688 -11.535156 12.507812 -12.226562 12.25 -13.03125 C 11.988281 -13.832031 11.554688 -14.484375 10.953125 -14.984375 C 10.359375 -15.492188 9.613281 -15.75 8.71875 -15.75 C 8.320312 -15.75 7.910156 -15.660156 7.484375 -15.484375 C 7.054688 -15.316406 6.582031 -15.03125 6.0625 -14.625 C 5.550781 -14.21875 5.113281 -13.550781 4.75 -12.625 C 4.382812 -11.695312 4.179688 -10.59375 4.140625 -9.3125 Z M 4.140625 -9.3125 "/></g></g></g><g fill="#d0cbc1" fill-opacity="1"><g transform="translate(146.70833, 216.059856)"><g><path d="M 0.484375 -2.96875 C 0.484375 -3.84375 0.78125 -4.585938 1.375 -5.203125 C 1.976562 -5.828125 2.691406 -6.140625 3.515625 -6.140625 C 3.765625 -6.140625 4.003906 -6.09375 4.234375 -6 C 4.460938 -5.90625 4.628906 -5.816406 4.734375 -5.734375 C 4.835938 -5.648438 4.960938 -5.535156 5.109375 -5.390625 L 5.546875 -6.03125 C 5.597656 -6.101562 5.644531 -6.140625 5.6875 -6.140625 C 5.738281 -6.140625 5.765625 -6.125 5.765625 -6.09375 C 5.773438 -6.070312 5.78125 -6.015625 5.78125 -5.921875 L 5.78125 -3.859375 C 5.78125 -3.765625 5.773438 -3.707031 5.765625 -3.6875 C 5.753906 -3.664062 5.710938 -3.65625 5.640625 -3.65625 C 5.585938 -3.65625 5.554688 -3.660156 5.546875 -3.671875 C 5.535156 -3.691406 5.519531 -3.734375 5.5 -3.796875 C 5.414062 -4.429688 5.195312 -4.929688 4.84375 -5.296875 C 4.5 -5.671875 4.085938 -5.859375 3.609375 -5.859375 C 3.472656 -5.859375 3.328125 -5.84375 3.171875 -5.8125 C 3.015625 -5.78125 2.828125 -5.703125 2.609375 -5.578125 C 2.390625 -5.460938 2.191406 -5.304688 2.015625 -5.109375 C 1.847656 -4.921875 1.703125 -4.640625 1.578125 -4.265625 C 1.453125 -3.890625 1.390625 -3.457031 1.390625 -2.96875 C 1.390625 -2.476562 1.453125 -2.046875 1.578125 -1.671875 C 1.703125 -1.296875 1.847656 -1.007812 2.015625 -0.8125 C 2.191406 -0.625 2.390625 -0.46875 2.609375 -0.34375 C 2.828125 -0.226562 3.015625 -0.15625 3.171875 -0.125 C 3.328125 -0.09375 3.476562 -0.078125 3.625 -0.078125 C 4.125 -0.078125 4.5625 -0.253906 4.9375 -0.609375 C 5.320312 -0.960938 5.535156 -1.4375 5.578125 -2.03125 C 5.578125 -2.0625 5.578125 -2.082031 5.578125 -2.09375 C 5.578125 -2.101562 5.578125 -2.113281 5.578125 -2.125 C 5.585938 -2.144531 5.597656 -2.15625 5.609375 -2.15625 C 5.628906 -2.164062 5.648438 -2.171875 5.671875 -2.171875 C 5.742188 -2.171875 5.78125 -2.125 5.78125 -2.03125 C 5.78125 -1.476562 5.566406 -0.96875 5.140625 -0.5 C 4.722656 -0.0390625 4.179688 0.1875 3.515625 0.1875 C 2.691406 0.1875 1.976562 -0.113281 1.375 -0.71875 C 0.78125 -1.332031 0.484375 -2.082031 0.484375 -2.96875 Z M 0.484375 -2.96875 "/></g></g></g><g fill="#d0cbc1" fill-opacity="1"><g transform="translate(157.779113, 216.059856)"><g><path d="M 0.484375 -2.953125 C 0.484375 -3.835938 0.765625 -4.585938 1.328125 -5.203125 C 1.898438 -5.828125 2.582031 -6.140625 3.375 -6.140625 C 4.175781 -6.140625 4.859375 -5.828125 5.421875 -5.203125 C 5.992188 -4.585938 6.28125 -3.835938 6.28125 -2.953125 C 6.28125 -2.078125 5.992188 -1.332031 5.421875 -0.71875 C 4.847656 -0.113281 4.164062 0.1875 3.375 0.1875 C 2.59375 0.1875 1.914062 -0.113281 1.34375 -0.71875 C 0.769531 -1.320312 0.484375 -2.066406 0.484375 -2.953125 Z M 1.390625 -3.078125 C 1.390625 -2.535156 1.453125 -2.054688 1.578125 -1.640625 C 1.703125 -1.234375 1.867188 -0.914062 2.078125 -0.6875 C 2.285156 -0.46875 2.5 -0.300781 2.71875 -0.1875 C 2.9375 -0.0820312 3.160156 -0.03125 3.390625 -0.03125 C 3.609375 -0.03125 3.828125 -0.0820312 4.046875 -0.1875 C 4.265625 -0.289062 4.472656 -0.453125 4.671875 -0.671875 C 4.878906 -0.898438 5.046875 -1.21875 5.171875 -1.625 C 5.304688 -2.039062 5.375 -2.523438 5.375 -3.078125 C 5.375 -3.492188 5.328125 -3.875 5.234375 -4.21875 C 5.148438 -4.5625 5.035156 -4.835938 4.890625 -5.046875 C 4.753906 -5.253906 4.59375 -5.425781 4.40625 -5.5625 C 4.226562 -5.695312 4.050781 -5.789062 3.875 -5.84375 C 3.707031 -5.894531 3.539062 -5.921875 3.375 -5.921875 C 3.175781 -5.921875 2.96875 -5.875 2.75 -5.78125 C 2.539062 -5.6875 2.328125 -5.539062 2.109375 -5.34375 C 1.898438 -5.144531 1.726562 -4.847656 1.59375 -4.453125 C 1.457031 -4.066406 1.390625 -3.609375 1.390625 -3.078125 Z M 1.390625 -3.078125 "/></g></g></g><g fill="#d0cbc1" fill-opacity="1"><g transform="translate(169.330236, 216.059856)"><g><path d="M 0.28125 0 L 0.28125 -0.265625 C 0.789062 -0.273438 1.113281 -0.472656 1.25 -0.859375 L 3.0625 -6.0625 C 3.082031 -6.125 3.101562 -6.164062 3.125 -6.1875 C 3.15625 -6.21875 3.203125 -6.234375 3.265625 -6.234375 C 3.296875 -6.234375 3.320312 -6.226562 3.34375 -6.21875 C 3.363281 -6.21875 3.378906 -6.207031 3.390625 -6.1875 C 3.410156 -6.164062 3.421875 -6.148438 3.421875 -6.140625 C 3.429688 -6.128906 3.445312 -6.101562 3.46875 -6.0625 L 5.34375 -0.609375 C 5.382812 -0.472656 5.453125 -0.378906 5.546875 -0.328125 C 5.640625 -0.285156 5.816406 -0.265625 6.078125 -0.265625 L 6.234375 -0.265625 L 6.234375 0 C 5.867188 -0.0195312 5.488281 -0.03125 5.09375 -0.03125 C 4.46875 -0.03125 4.050781 -0.0195312 3.84375 0 L 3.84375 -0.265625 C 4.320312 -0.265625 4.5625 -0.351562 4.5625 -0.53125 C 4.5625 -0.539062 4.554688 -0.582031 4.546875 -0.65625 L 4.078125 -1.984375 L 1.9375 -1.984375 L 1.53125 -0.84375 C 1.519531 -0.820312 1.515625 -0.78125 1.515625 -0.71875 C 1.515625 -0.59375 1.570312 -0.484375 1.6875 -0.390625 C 1.800781 -0.304688 1.960938 -0.265625 2.171875 -0.265625 L 2.171875 0 C 1.609375 -0.0195312 1.273438 -0.03125 1.171875 -0.03125 C 0.972656 -0.03125 0.675781 -0.0195312 0.28125 0 Z M 2.03125 -2.25 L 3.984375 -2.25 L 3 -5.078125 Z M 2.03125 -2.25 "/></g></g></g><g fill="#d0cbc1" fill-opacity="1"><g transform="translate(180.647567, 216.059856)"><g><path d="M 0.484375 -2.96875 C 0.484375 -3.84375 0.78125 -4.585938 1.375 -5.203125 C 1.976562 -5.828125 2.691406 -6.140625 3.515625 -6.140625 C 3.765625 -6.140625 4.003906 -6.09375 4.234375 -6 C 4.460938 -5.90625 4.628906 -5.816406 4.734375 -5.734375 C 4.835938 -5.648438 4.960938 -5.535156 5.109375 -5.390625 L 5.546875 -6.03125 C 5.597656 -6.101562 5.644531 -6.140625 5.6875 -6.140625 C 5.738281 -6.140625 5.765625 -6.125 5.765625 -6.09375 C 5.773438 -6.070312 5.78125 -6.015625 5.78125 -5.921875 L 5.78125 -3.859375 C 5.78125 -3.765625 5.773438 -3.707031 5.765625 -3.6875 C 5.753906 -3.664062 5.710938 -3.65625 5.640625 -3.65625 C 5.585938 -3.65625 5.554688 -3.660156 5.546875 -3.671875 C 5.535156 -3.691406 5.519531 -3.734375 5.5 -3.796875 C 5.414062 -4.429688 5.195312 -4.929688 4.84375 -5.296875 C 4.5 -5.671875 4.085938 -5.859375 3.609375 -5.859375 C 3.472656 -5.859375 3.328125 -5.84375 3.171875 -5.8125 C 3.015625 -5.78125 2.828125 -5.703125 2.609375 -5.578125 C 2.390625 -5.460938 2.191406 -5.304688 2.015625 -5.109375 C 1.847656 -4.921875 1.703125 -4.640625 1.578125 -4.265625 C 1.453125 -3.890625 1.390625 -3.457031 1.390625 -2.96875 C 1.390625 -2.476562 1.453125 -2.046875 1.578125 -1.671875 C 1.703125 -1.296875 1.847656 -1.007812 2.015625 -0.8125 C 2.191406 -0.625 2.390625 -0.46875 2.609375 -0.34375 C 2.828125 -0.226562 3.015625 -0.15625 3.171875 -0.125 C 3.328125 -0.09375 3.476562 -0.078125 3.625 -0.078125 C 4.125 -0.078125 4.5625 -0.253906 4.9375 -0.609375 C 5.320312 -0.960938 5.535156 -1.4375 5.578125 -2.03125 C 5.578125 -2.0625 5.578125 -2.082031 5.578125 -2.09375 C 5.578125 -2.101562 5.578125 -2.113281 5.578125 -2.125 C 5.585938 -2.144531 5.597656 -2.15625 5.609375 -2.15625 C 5.628906 -2.164062 5.648438 -2.171875 5.671875 -2.171875 C 5.742188 -2.171875 5.78125 -2.125 5.78125 -2.03125 C 5.78125 -1.476562 5.566406 -0.96875 5.140625 -0.5 C 4.722656 -0.0390625 4.179688 0.1875 3.515625 0.1875 C 2.691406 0.1875 1.976562 -0.113281 1.375 -0.71875 C 0.78125 -1.332031 0.484375 -2.082031 0.484375 -2.96875 Z M 0.484375 -2.96875 "/></g></g></g><g fill="#d0cbc1" fill-opacity="1"><g transform="translate(191.718349, 216.059856)"><g><path d="M 0.28125 0 L 0.28125 -0.265625 L 0.5 -0.265625 C 0.8125 -0.265625 1.003906 -0.289062 1.078125 -0.34375 C 1.148438 -0.394531 1.1875 -0.507812 1.1875 -0.6875 L 1.1875 -5.265625 C 1.1875 -5.429688 1.148438 -5.539062 1.078125 -5.59375 C 1.003906 -5.644531 0.8125 -5.671875 0.5 -5.671875 L 0.28125 -5.671875 L 0.28125 -5.9375 C 0.488281 -5.925781 0.921875 -5.921875 1.578125 -5.921875 C 2.222656 -5.921875 2.648438 -5.925781 2.859375 -5.9375 L 2.859375 -5.671875 L 2.640625 -5.671875 C 2.328125 -5.671875 2.132812 -5.644531 2.0625 -5.59375 C 1.988281 -5.539062 1.953125 -5.429688 1.953125 -5.265625 L 1.953125 -3.234375 L 4.5625 -3.234375 L 4.5625 -5.265625 C 4.5625 -5.429688 4.523438 -5.539062 4.453125 -5.59375 C 4.378906 -5.644531 4.1875 -5.671875 3.875 -5.671875 L 3.65625 -5.671875 L 3.65625 -5.9375 C 3.863281 -5.925781 4.296875 -5.921875 4.953125 -5.921875 C 5.597656 -5.921875 6.023438 -5.925781 6.234375 -5.9375 L 6.234375 -5.671875 L 6.015625 -5.671875 C 5.703125 -5.671875 5.507812 -5.644531 5.4375 -5.59375 C 5.363281 -5.539062 5.328125 -5.429688 5.328125 -5.265625 L 5.328125 -0.6875 C 5.328125 -0.507812 5.363281 -0.394531 5.4375 -0.34375 C 5.507812 -0.289062 5.703125 -0.265625 6.015625 -0.265625 L 6.234375 -0.265625 L 6.234375 0 C 6.023438 -0.0195312 5.59375 -0.03125 4.9375 -0.03125 C 4.289062 -0.03125 3.863281 -0.0195312 3.65625 0 L 3.65625 -0.265625 L 3.875 -0.265625 C 4.1875 -0.265625 4.378906 -0.289062 4.453125 -0.34375 C 4.523438 -0.394531 4.5625 -0.507812 4.5625 -0.6875 L 4.5625 -2.953125 L 1.953125 -2.953125 L 1.953125 -0.6875 C 1.953125 -0.507812 1.988281 -0.394531 2.0625 -0.34375 C 2.132812 -0.289062 2.328125 -0.265625 2.640625 -0.265625 L 2.859375 -0.265625 L 2.859375 0 C 2.648438 -0.0195312 2.21875 -0.03125 1.5625 -0.03125 C 0.914062 -0.03125 0.488281 -0.0195312 0.28125 0 Z M 0.28125 0 "/></g></g></g><g fill="#d0cbc1" fill-opacity="1"><g transform="translate(203.035677, 216.059856)"><g><path d="M 0.875 -0.140625 C 0.789062 -0.234375 0.75 -0.335938 0.75 -0.453125 C 0.75 -0.578125 0.785156 -0.6875 0.859375 -0.78125 C 0.941406 -0.875 1.0625 -0.921875 1.21875 -0.921875 C 1.382812 -0.921875 1.515625 -0.835938 1.609375 -0.671875 C 1.710938 -0.503906 1.765625 -0.285156 1.765625 -0.015625 C 1.765625 0.285156 1.703125 0.578125 1.578125 0.859375 C 1.460938 1.140625 1.34375 1.34375 1.21875 1.46875 C 1.101562 1.601562 1.019531 1.671875 0.96875 1.671875 C 0.914062 1.671875 0.890625 1.640625 0.890625 1.578125 C 0.890625 1.554688 0.910156 1.523438 0.953125 1.484375 C 1.367188 1.035156 1.578125 0.535156 1.578125 -0.015625 C 1.578125 -0.0976562 1.570312 -0.140625 1.5625 -0.140625 L 1.53125 -0.125 C 1.4375 -0.0390625 1.332031 0 1.21875 0 C 1.070312 0 0.957031 -0.046875 0.875 -0.140625 Z M 0.875 -0.140625 "/></g></g></g><g fill="#d0cbc1" fill-opacity="1"><g transform="translate(210.23398, 216.059856)"><g/></g></g><g fill="#d0cbc1" fill-opacity="1"><g transform="translate(217.916874, 216.059856)"><g><path d="M 0.3125 0 L 0.3125 -0.265625 L 0.515625 -0.265625 C 0.828125 -0.265625 1.019531 -0.289062 1.09375 -0.34375 C 1.164062 -0.394531 1.203125 -0.507812 1.203125 -0.6875 L 1.203125 -5.265625 C 1.203125 -5.429688 1.164062 -5.539062 1.09375 -5.59375 C 1.019531 -5.644531 0.828125 -5.671875 0.515625 -5.671875 L 0.3125 -5.671875 L 0.3125 -5.9375 L 3.03125 -5.9375 C 3.664062 -5.9375 4.203125 -5.78125 4.640625 -5.46875 C 5.085938 -5.164062 5.3125 -4.800781 5.3125 -4.375 C 5.3125 -4.050781 5.164062 -3.757812 4.875 -3.5 C 4.59375 -3.25 4.226562 -3.066406 3.78125 -2.953125 C 4.363281 -2.753906 4.71875 -2.421875 4.84375 -1.953125 L 4.953125 -1.25 C 4.984375 -1.082031 5.003906 -0.957031 5.015625 -0.875 C 5.035156 -0.789062 5.054688 -0.691406 5.078125 -0.578125 C 5.097656 -0.460938 5.125 -0.375 5.15625 -0.3125 C 5.1875 -0.257812 5.21875 -0.203125 5.25 -0.140625 C 5.289062 -0.0859375 5.335938 -0.0507812 5.390625 -0.03125 C 5.441406 -0.0078125 5.503906 0 5.578125 0 C 5.710938 0 5.835938 -0.0546875 5.953125 -0.171875 C 6.066406 -0.296875 6.132812 -0.492188 6.15625 -0.765625 C 6.164062 -0.859375 6.203125 -0.90625 6.265625 -0.90625 C 6.335938 -0.90625 6.375 -0.859375 6.375 -0.765625 C 6.375 -0.691406 6.359375 -0.601562 6.328125 -0.5 C 6.304688 -0.40625 6.269531 -0.300781 6.21875 -0.1875 C 6.164062 -0.0820312 6.078125 0.00390625 5.953125 0.078125 C 5.835938 0.148438 5.703125 0.1875 5.546875 0.1875 C 5.085938 0.1875 4.722656 0.0664062 4.453125 -0.171875 C 4.335938 -0.273438 4.253906 -0.394531 4.203125 -0.53125 C 4.148438 -0.664062 4.117188 -0.785156 4.109375 -0.890625 C 4.097656 -1.003906 4.09375 -1.179688 4.09375 -1.421875 C 4.09375 -1.753906 4.070312 -1.992188 4.03125 -2.140625 C 4 -2.285156 3.910156 -2.429688 3.765625 -2.578125 C 3.554688 -2.773438 3.285156 -2.875 2.953125 -2.875 L 1.953125 -2.875 L 1.953125 -0.6875 C 1.953125 -0.507812 1.988281 -0.394531 2.0625 -0.34375 C 2.132812 -0.289062 2.328125 -0.265625 2.640625 -0.265625 L 2.84375 -0.265625 L 2.84375 0 C 2.632812 -0.0195312 2.210938 -0.03125 1.578125 -0.03125 C 0.941406 -0.03125 0.519531 -0.0195312 0.3125 0 Z M 1.953125 -3.078125 L 2.921875 -3.078125 C 3.222656 -3.078125 3.476562 -3.113281 3.6875 -3.1875 C 3.894531 -3.257812 4.046875 -3.363281 4.140625 -3.5 C 4.242188 -3.632812 4.3125 -3.769531 4.34375 -3.90625 C 4.382812 -4.050781 4.40625 -4.207031 4.40625 -4.375 C 4.40625 -4.582031 4.382812 -4.757812 4.34375 -4.90625 C 4.300781 -5.0625 4.226562 -5.179688 4.125 -5.265625 C 4.03125 -5.359375 3.929688 -5.4375 3.828125 -5.5 C 3.734375 -5.5625 3.609375 -5.601562 3.453125 -5.625 C 3.296875 -5.644531 3.164062 -5.65625 3.0625 -5.65625 C 2.957031 -5.664062 2.820312 -5.671875 2.65625 -5.671875 C 2.375 -5.671875 2.203125 -5.664062 2.140625 -5.65625 C 2.078125 -5.644531 2.03125 -5.625 2 -5.59375 C 1.976562 -5.5625 1.960938 -5.53125 1.953125 -5.5 C 1.953125 -5.46875 1.953125 -5.410156 1.953125 -5.328125 Z M 1.953125 -3.078125 "/></g></g></g><g fill="#d0cbc1" fill-opacity="1"><g transform="translate(229.110929, 216.059856)"><g><path d="M 0.28125 0 L 0.28125 -0.265625 C 0.46875 -0.273438 0.625 -0.296875 0.75 -0.328125 C 0.875 -0.359375 0.96875 -0.421875 1.03125 -0.515625 C 1.101562 -0.609375 1.15625 -0.6875 1.1875 -0.75 C 1.21875 -0.8125 1.257812 -0.910156 1.3125 -1.046875 L 2.859375 -5.5 C 2.878906 -5.5625 2.910156 -5.65625 2.953125 -5.78125 C 3.003906 -5.90625 3.039062 -6 3.0625 -6.0625 C 2.644531 -6.226562 2.429688 -6.539062 2.421875 -7 C 2.421875 -7.238281 2.492188 -7.457031 2.640625 -7.65625 C 2.796875 -7.851562 3 -7.953125 3.25 -7.953125 C 3.5 -7.953125 3.703125 -7.851562 3.859375 -7.65625 C 4.015625 -7.46875 4.09375 -7.25 4.09375 -7 C 4.09375 -6.539062 3.882812 -6.226562 3.46875 -6.0625 L 5.296875 -0.78125 C 5.378906 -0.539062 5.460938 -0.394531 5.546875 -0.34375 C 5.628906 -0.289062 5.847656 -0.265625 6.203125 -0.265625 L 6.234375 -0.265625 L 6.234375 0 C 5.867188 -0.0195312 5.5 -0.03125 5.125 -0.03125 C 4.695312 -0.03125 4.269531 -0.0195312 3.84375 0 L 3.84375 -0.265625 L 3.859375 -0.265625 C 4.316406 -0.265625 4.546875 -0.359375 4.546875 -0.546875 C 4.546875 -0.585938 4.390625 -1.066406 4.078125 -1.984375 L 1.921875 -1.984375 C 1.890625 -1.867188 1.832031 -1.707031 1.75 -1.5 C 1.675781 -1.289062 1.617188 -1.113281 1.578125 -0.96875 C 1.535156 -0.832031 1.515625 -0.742188 1.515625 -0.703125 C 1.515625 -0.597656 1.5625 -0.5 1.65625 -0.40625 C 1.757812 -0.320312 1.925781 -0.273438 2.15625 -0.265625 L 2.15625 0 C 1.820312 -0.0195312 1.484375 -0.03125 1.140625 -0.03125 C 0.859375 -0.03125 0.570312 -0.0195312 0.28125 0 Z M 2.015625 -2.25 L 3.984375 -2.25 L 3 -5.078125 Z M 2.640625 -7 C 2.640625 -6.71875 2.703125 -6.519531 2.828125 -6.40625 C 2.953125 -6.289062 3.09375 -6.234375 3.25 -6.234375 C 3.414062 -6.234375 3.5625 -6.285156 3.6875 -6.390625 C 3.8125 -6.503906 3.875 -6.703125 3.875 -6.984375 C 3.875 -7.273438 3.8125 -7.472656 3.6875 -7.578125 C 3.5625 -7.691406 3.414062 -7.75 3.25 -7.75 C 3.09375 -7.75 2.953125 -7.691406 2.828125 -7.578125 C 2.703125 -7.472656 2.640625 -7.28125 2.640625 -7 Z M 2.640625 -7 "/></g></g></g><g fill="#d0cbc1" fill-opacity="1"><g transform="translate(240.428257, 216.059856)"><g><path d="M 0.3125 0 L 0.3125 -0.265625 L 0.515625 -0.265625 C 0.828125 -0.265625 1.019531 -0.289062 1.09375 -0.34375 C 1.164062 -0.394531 1.203125 -0.507812 1.203125 -0.6875 L 1.203125 -5.265625 C 1.203125 -5.429688 1.164062 -5.539062 1.09375 -5.59375 C 1.019531 -5.644531 0.828125 -5.671875 0.515625 -5.671875 L 0.3125 -5.671875 L 0.3125 -5.9375 L 3.484375 -5.9375 C 4.234375 -5.9375 4.863281 -5.640625 5.375 -5.046875 C 5.894531 -4.460938 6.15625 -3.753906 6.15625 -2.921875 C 6.15625 -2.109375 5.894531 -1.414062 5.375 -0.84375 C 4.851562 -0.28125 4.222656 0 3.484375 0 Z M 1.953125 -0.609375 C 1.953125 -0.460938 1.972656 -0.367188 2.015625 -0.328125 C 2.054688 -0.285156 2.175781 -0.265625 2.375 -0.265625 L 3.25 -0.265625 C 3.632812 -0.265625 3.957031 -0.34375 4.21875 -0.5 C 4.476562 -0.65625 4.671875 -0.828125 4.796875 -1.015625 C 5.117188 -1.453125 5.28125 -2.085938 5.28125 -2.921875 C 5.28125 -3.804688 5.128906 -4.453125 4.828125 -4.859375 C 4.441406 -5.398438 3.914062 -5.671875 3.25 -5.671875 L 2.375 -5.671875 C 2.175781 -5.671875 2.054688 -5.648438 2.015625 -5.609375 C 1.972656 -5.566406 1.953125 -5.472656 1.953125 -5.328125 Z M 1.953125 -0.609375 "/></g></g></g><g fill="#d0cbc1" fill-opacity="1"><g transform="translate(251.856112, 216.059856)"><g><path d="M 1.375 -0.734375 C 0.78125 -1.347656 0.484375 -2.09375 0.484375 -2.96875 C 0.484375 -3.851562 0.785156 -4.601562 1.390625 -5.21875 C 1.992188 -5.832031 2.703125 -6.140625 3.515625 -6.140625 C 3.722656 -6.140625 3.910156 -6.113281 4.078125 -6.0625 C 4.253906 -6.019531 4.410156 -5.953125 4.546875 -5.859375 C 4.691406 -5.765625 4.796875 -5.6875 4.859375 -5.625 C 4.929688 -5.5625 5.019531 -5.484375 5.125 -5.390625 L 5.5625 -6.03125 C 5.601562 -6.101562 5.644531 -6.140625 5.6875 -6.140625 C 5.738281 -6.140625 5.769531 -6.125 5.78125 -6.09375 C 5.789062 -6.070312 5.796875 -6.015625 5.796875 -5.921875 L 5.796875 -3.859375 C 5.796875 -3.765625 5.789062 -3.707031 5.78125 -3.6875 C 5.769531 -3.664062 5.726562 -3.65625 5.65625 -3.65625 C 5.601562 -3.65625 5.566406 -3.660156 5.546875 -3.671875 C 5.535156 -3.691406 5.523438 -3.734375 5.515625 -3.796875 C 5.429688 -4.429688 5.210938 -4.929688 4.859375 -5.296875 C 4.503906 -5.671875 4.09375 -5.859375 3.625 -5.859375 C 3.476562 -5.859375 3.328125 -5.84375 3.171875 -5.8125 C 3.023438 -5.78125 2.835938 -5.703125 2.609375 -5.578125 C 2.390625 -5.460938 2.191406 -5.304688 2.015625 -5.109375 C 1.847656 -4.921875 1.703125 -4.640625 1.578125 -4.265625 C 1.453125 -3.898438 1.390625 -3.46875 1.390625 -2.96875 C 1.390625 -2.488281 1.453125 -2.0625 1.578125 -1.6875 C 1.703125 -1.3125 1.847656 -1.023438 2.015625 -0.828125 C 2.191406 -0.640625 2.394531 -0.484375 2.625 -0.359375 C 2.851562 -0.234375 3.046875 -0.15625 3.203125 -0.125 C 3.367188 -0.09375 3.523438 -0.078125 3.671875 -0.078125 C 3.773438 -0.078125 3.882812 -0.0859375 4 -0.109375 C 4.113281 -0.128906 4.253906 -0.171875 4.421875 -0.234375 C 4.597656 -0.296875 4.738281 -0.40625 4.84375 -0.5625 C 4.957031 -0.71875 5.015625 -0.90625 5.015625 -1.125 L 5.015625 -1.6875 C 5.015625 -1.863281 4.972656 -1.976562 4.890625 -2.03125 C 4.804688 -2.082031 4.582031 -2.109375 4.21875 -2.109375 L 3.9375 -2.109375 L 3.9375 -2.375 C 4.144531 -2.351562 4.609375 -2.34375 5.328125 -2.34375 C 5.398438 -2.34375 5.753906 -2.351562 6.390625 -2.375 L 6.390625 -2.109375 C 6.117188 -2.109375 5.953125 -2.085938 5.890625 -2.046875 C 5.828125 -2.003906 5.796875 -1.894531 5.796875 -1.71875 L 5.796875 -0.203125 C 5.796875 -0.078125 5.769531 -0.015625 5.71875 -0.015625 C 5.675781 -0.015625 5.585938 -0.078125 5.453125 -0.203125 C 5.316406 -0.335938 5.21875 -0.453125 5.15625 -0.546875 C 5.019531 -0.304688 4.800781 -0.125 4.5 0 C 4.195312 0.125 3.875 0.1875 3.53125 0.1875 C 2.695312 0.1875 1.976562 -0.117188 1.375 -0.734375 Z M 1.375 -0.734375 "/></g></g></g><g fill="#d0cbc1" fill-opacity="1"><g transform="translate(263.46675, 216.059856)"><g><path d="M 0.25 0 L 0.25 -0.265625 L 0.46875 -0.265625 C 0.789062 -0.265625 0.988281 -0.289062 1.0625 -0.34375 C 1.144531 -0.394531 1.1875 -0.507812 1.1875 -0.6875 L 1.1875 -5.265625 C 1.1875 -5.429688 1.144531 -5.539062 1.0625 -5.59375 C 0.988281 -5.644531 0.789062 -5.671875 0.46875 -5.671875 L 0.25 -5.671875 L 0.25 -5.9375 C 0.445312 -5.925781 0.890625 -5.921875 1.578125 -5.921875 C 2.253906 -5.921875 2.691406 -5.925781 2.890625 -5.9375 L 2.890625 -5.671875 L 2.671875 -5.671875 C 2.347656 -5.671875 2.144531 -5.644531 2.0625 -5.59375 C 1.988281 -5.539062 1.953125 -5.429688 1.953125 -5.265625 L 1.953125 -0.6875 C 1.953125 -0.507812 1.988281 -0.394531 2.0625 -0.34375 C 2.144531 -0.289062 2.347656 -0.265625 2.671875 -0.265625 L 2.890625 -0.265625 L 2.890625 0 C 2.691406 -0.0195312 2.25 -0.03125 1.5625 -0.03125 C 0.882812 -0.03125 0.445312 -0.0195312 0.25 0 Z M 0.25 0 "/></g></g></g><g fill="#d0cbc1" fill-opacity="1"><g transform="translate(271.396197, 216.059856)"><g><path d="M 0.171875 -5.671875 L 0.171875 -5.9375 C 0.796875 -5.925781 1.160156 -5.921875 1.265625 -5.921875 C 1.890625 -5.921875 2.304688 -5.925781 2.515625 -5.9375 L 2.515625 -5.671875 C 2.035156 -5.671875 1.796875 -5.585938 1.796875 -5.421875 C 1.796875 -5.398438 1.816406 -5.347656 1.859375 -5.265625 L 3.515625 -0.875 L 5.109375 -5.0625 C 5.140625 -5.15625 5.15625 -5.210938 5.15625 -5.234375 C 5.15625 -5.347656 5.097656 -5.445312 4.984375 -5.53125 C 4.878906 -5.625 4.722656 -5.671875 4.515625 -5.671875 L 4.515625 -5.9375 C 4.972656 -5.925781 5.300781 -5.921875 5.5 -5.921875 C 5.800781 -5.921875 6.085938 -5.925781 6.359375 -5.9375 L 6.359375 -5.671875 C 5.867188 -5.671875 5.550781 -5.476562 5.40625 -5.09375 L 3.46875 0.03125 C 3.4375 0.09375 3.410156 0.132812 3.390625 0.15625 C 3.367188 0.175781 3.320312 0.1875 3.25 0.1875 C 3.195312 0.1875 3.15625 0.175781 3.125 0.15625 C 3.09375 0.132812 3.0625 0.0820312 3.03125 0 L 1.015625 -5.34375 C 0.960938 -5.5 0.882812 -5.59375 0.78125 -5.625 C 0.675781 -5.65625 0.472656 -5.671875 0.171875 -5.671875 Z M 0.171875 -5.671875 "/></g></g></g><g fill="#d0cbc1" fill-opacity="1"><g transform="translate(282.71353, 216.059856)"><g><path d="M 0.28125 0 L 0.28125 -0.265625 L 0.5 -0.265625 C 0.8125 -0.265625 1.003906 -0.289062 1.078125 -0.34375 C 1.148438 -0.394531 1.1875 -0.507812 1.1875 -0.6875 L 1.1875 -5.234375 C 1.1875 -5.398438 1.148438 -5.507812 1.078125 -5.5625 C 1.003906 -5.613281 0.8125 -5.640625 0.5 -5.640625 L 0.28125 -5.640625 L 0.28125 -5.921875 L 5.1875 -5.921875 L 5.4375 -3.953125 L 5.21875 -3.953125 C 5.175781 -4.285156 5.128906 -4.546875 5.078125 -4.734375 C 5.023438 -4.929688 4.9375 -5.101562 4.8125 -5.25 C 4.6875 -5.394531 4.519531 -5.492188 4.3125 -5.546875 C 4.101562 -5.609375 3.832031 -5.640625 3.5 -5.640625 L 2.390625 -5.640625 C 2.191406 -5.640625 2.066406 -5.617188 2.015625 -5.578125 C 1.972656 -5.546875 1.953125 -5.453125 1.953125 -5.296875 L 1.953125 -3.21875 L 2.734375 -3.21875 C 3.140625 -3.21875 3.398438 -3.285156 3.515625 -3.421875 C 3.628906 -3.554688 3.6875 -3.828125 3.6875 -4.234375 L 3.90625 -4.234375 L 3.90625 -1.921875 L 3.6875 -1.921875 C 3.6875 -2.316406 3.628906 -2.582031 3.515625 -2.71875 C 3.398438 -2.863281 3.140625 -2.9375 2.734375 -2.9375 L 1.953125 -2.9375 L 1.953125 -0.609375 C 1.953125 -0.460938 1.972656 -0.367188 2.015625 -0.328125 C 2.066406 -0.285156 2.191406 -0.265625 2.390625 -0.265625 L 3.546875 -0.265625 C 3.796875 -0.265625 4.007812 -0.28125 4.1875 -0.3125 C 4.375 -0.34375 4.53125 -0.398438 4.65625 -0.484375 C 4.78125 -0.566406 4.882812 -0.65625 4.96875 -0.75 C 5.0625 -0.84375 5.140625 -0.972656 5.203125 -1.140625 C 5.265625 -1.304688 5.3125 -1.46875 5.34375 -1.625 C 5.375 -1.78125 5.410156 -1.988281 5.453125 -2.25 L 5.671875 -2.25 L 5.3125 0 Z M 0.28125 0 "/></g></g></g><g fill="#d0cbc1" fill-opacity="1"><g transform="translate(293.418748, 216.059856)"><g><path d="M 0.3125 0 L 0.3125 -0.265625 L 0.515625 -0.265625 C 0.828125 -0.265625 1.019531 -0.289062 1.09375 -0.34375 C 1.164062 -0.394531 1.203125 -0.507812 1.203125 -0.6875 L 1.203125 -5.265625 C 1.203125 -5.429688 1.164062 -5.539062 1.09375 -5.59375 C 1.019531 -5.644531 0.828125 -5.671875 0.515625 -5.671875 L 0.3125 -5.671875 L 0.3125 -5.9375 L 3.03125 -5.9375 C 3.664062 -5.9375 4.203125 -5.78125 4.640625 -5.46875 C 5.085938 -5.164062 5.3125 -4.800781 5.3125 -4.375 C 5.3125 -4.050781 5.164062 -3.757812 4.875 -3.5 C 4.59375 -3.25 4.226562 -3.066406 3.78125 -2.953125 C 4.363281 -2.753906 4.71875 -2.421875 4.84375 -1.953125 L 4.953125 -1.25 C 4.984375 -1.082031 5.003906 -0.957031 5.015625 -0.875 C 5.035156 -0.789062 5.054688 -0.691406 5.078125 -0.578125 C 5.097656 -0.460938 5.125 -0.375 5.15625 -0.3125 C 5.1875 -0.257812 5.21875 -0.203125 5.25 -0.140625 C 5.289062 -0.0859375 5.335938 -0.0507812 5.390625 -0.03125 C 5.441406 -0.0078125 5.503906 0 5.578125 0 C 5.710938 0 5.835938 -0.0546875 5.953125 -0.171875 C 6.066406 -0.296875 6.132812 -0.492188 6.15625 -0.765625 C 6.164062 -0.859375 6.203125 -0.90625 6.265625 -0.90625 C 6.335938 -0.90625 6.375 -0.859375 6.375 -0.765625 C 6.375 -0.691406 6.359375 -0.601562 6.328125 -0.5 C 6.304688 -0.40625 6.269531 -0.300781 6.21875 -0.1875 C 6.164062 -0.0820312 6.078125 0.00390625 5.953125 0.078125 C 5.835938 0.148438 5.703125 0.1875 5.546875 0.1875 C 5.085938 0.1875 4.722656 0.0664062 4.453125 -0.171875 C 4.335938 -0.273438 4.253906 -0.394531 4.203125 -0.53125 C 4.148438 -0.664062 4.117188 -0.785156 4.109375 -0.890625 C 4.097656 -1.003906 4.09375 -1.179688 4.09375 -1.421875 C 4.09375 -1.753906 4.070312 -1.992188 4.03125 -2.140625 C 4 -2.285156 3.910156 -2.429688 3.765625 -2.578125 C 3.554688 -2.773438 3.285156 -2.875 2.953125 -2.875 L 1.953125 -2.875 L 1.953125 -0.6875 C 1.953125 -0.507812 1.988281 -0.394531 2.0625 -0.34375 C 2.132812 -0.289062 2.328125 -0.265625 2.640625 -0.265625 L 2.84375 -0.265625 L 2.84375 0 C 2.632812 -0.0195312 2.210938 -0.03125 1.578125 -0.03125 C 0.941406 -0.03125 0.519531 -0.0195312 0.3125 0 Z M 1.953125 -3.078125 L 2.921875 -3.078125 C 3.222656 -3.078125 3.476562 -3.113281 3.6875 -3.1875 C 3.894531 -3.257812 4.046875 -3.363281 4.140625 -3.5 C 4.242188 -3.632812 4.3125 -3.769531 4.34375 -3.90625 C 4.382812 -4.050781 4.40625 -4.207031 4.40625 -4.375 C 4.40625 -4.582031 4.382812 -4.757812 4.34375 -4.90625 C 4.300781 -5.0625 4.226562 -5.179688 4.125 -5.265625 C 4.03125 -5.359375 3.929688 -5.4375 3.828125 -5.5 C 3.734375 -5.5625 3.609375 -5.601562 3.453125 -5.625 C 3.296875 -5.644531 3.164062 -5.65625 3.0625 -5.65625 C 2.957031 -5.664062 2.820312 -5.671875 2.65625 -5.671875 C 2.375 -5.671875 2.203125 -5.664062 2.140625 -5.65625 C 2.078125 -5.644531 2.03125 -5.625 2 -5.59375 C 1.976562 -5.5625 1.960938 -5.53125 1.953125 -5.5 C 1.953125 -5.46875 1.953125 -5.410156 1.953125 -5.328125 Z M 1.953125 -3.078125 "/></g></g></g><g fill="#d0cbc1" fill-opacity="1"><g transform="translate(304.612809, 216.059856)"><g/></g></g><g fill="#d0cbc1" fill-opacity="1"><g transform="translate(312.295709, 216.059856)"><g><path d="M 0.484375 -2.953125 C 0.484375 -3.835938 0.765625 -4.585938 1.328125 -5.203125 C 1.898438 -5.828125 2.582031 -6.140625 3.375 -6.140625 C 4.175781 -6.140625 4.859375 -5.828125 5.421875 -5.203125 C 5.992188 -4.585938 6.28125 -3.835938 6.28125 -2.953125 C 6.28125 -2.078125 5.992188 -1.332031 5.421875 -0.71875 C 4.847656 -0.113281 4.164062 0.1875 3.375 0.1875 C 2.59375 0.1875 1.914062 -0.113281 1.34375 -0.71875 C 0.769531 -1.320312 0.484375 -2.066406 0.484375 -2.953125 Z M 1.390625 -3.078125 C 1.390625 -2.535156 1.453125 -2.054688 1.578125 -1.640625 C 1.703125 -1.234375 1.867188 -0.914062 2.078125 -0.6875 C 2.285156 -0.46875 2.5 -0.300781 2.71875 -0.1875 C 2.9375 -0.0820312 3.160156 -0.03125 3.390625 -0.03125 C 3.609375 -0.03125 3.828125 -0.0820312 4.046875 -0.1875 C 4.265625 -0.289062 4.472656 -0.453125 4.671875 -0.671875 C 4.878906 -0.898438 5.046875 -1.21875 5.171875 -1.625 C 5.304688 -2.039062 5.375 -2.523438 5.375 -3.078125 C 5.375 -3.492188 5.328125 -3.875 5.234375 -4.21875 C 5.148438 -4.5625 5.035156 -4.835938 4.890625 -5.046875 C 4.753906 -5.253906 4.59375 -5.425781 4.40625 -5.5625 C 4.226562 -5.695312 4.050781 -5.789062 3.875 -5.84375 C 3.707031 -5.894531 3.539062 -5.921875 3.375 -5.921875 C 3.175781 -5.921875 2.96875 -5.875 2.75 -5.78125 C 2.539062 -5.6875 2.328125 -5.539062 2.109375 -5.34375 C 1.898438 -5.144531 1.726562 -4.847656 1.59375 -4.453125 C 1.457031 -4.066406 1.390625 -3.609375 1.390625 -3.078125 Z M 1.390625 -3.078125 "/></g></g></g><g fill="#d0cbc1" fill-opacity="1"><g transform="translate(323.846836, 216.059856)"><g><path d="M 1.375 -0.734375 C 0.78125 -1.347656 0.484375 -2.09375 0.484375 -2.96875 C 0.484375 -3.851562 0.785156 -4.601562 1.390625 -5.21875 C 1.992188 -5.832031 2.703125 -6.140625 3.515625 -6.140625 C 3.722656 -6.140625 3.910156 -6.113281 4.078125 -6.0625 C 4.253906 -6.019531 4.410156 -5.953125 4.546875 -5.859375 C 4.691406 -5.765625 4.796875 -5.6875 4.859375 -5.625 C 4.929688 -5.5625 5.019531 -5.484375 5.125 -5.390625 L 5.5625 -6.03125 C 5.601562 -6.101562 5.644531 -6.140625 5.6875 -6.140625 C 5.738281 -6.140625 5.769531 -6.125 5.78125 -6.09375 C 5.789062 -6.070312 5.796875 -6.015625 5.796875 -5.921875 L 5.796875 -3.859375 C 5.796875 -3.765625 5.789062 -3.707031 5.78125 -3.6875 C 5.769531 -3.664062 5.726562 -3.65625 5.65625 -3.65625 C 5.601562 -3.65625 5.566406 -3.660156 5.546875 -3.671875 C 5.535156 -3.691406 5.523438 -3.734375 5.515625 -3.796875 C 5.429688 -4.429688 5.210938 -4.929688 4.859375 -5.296875 C 4.503906 -5.671875 4.09375 -5.859375 3.625 -5.859375 C 3.476562 -5.859375 3.328125 -5.84375 3.171875 -5.8125 C 3.023438 -5.78125 2.835938 -5.703125 2.609375 -5.578125 C 2.390625 -5.460938 2.191406 -5.304688 2.015625 -5.109375 C 1.847656 -4.921875 1.703125 -4.640625 1.578125 -4.265625 C 1.453125 -3.898438 1.390625 -3.46875 1.390625 -2.96875 C 1.390625 -2.488281 1.453125 -2.0625 1.578125 -1.6875 C 1.703125 -1.3125 1.847656 -1.023438 2.015625 -0.828125 C 2.191406 -0.640625 2.394531 -0.484375 2.625 -0.359375 C 2.851562 -0.234375 3.046875 -0.15625 3.203125 -0.125 C 3.367188 -0.09375 3.523438 -0.078125 3.671875 -0.078125 C 3.773438 -0.078125 3.882812 -0.0859375 4 -0.109375 C 4.113281 -0.128906 4.253906 -0.171875 4.421875 -0.234375 C 4.597656 -0.296875 4.738281 -0.40625 4.84375 -0.5625 C 4.957031 -0.71875 5.015625 -0.90625 5.015625 -1.125 L 5.015625 -1.6875 C 5.015625 -1.863281 4.972656 -1.976562 4.890625 -2.03125 C 4.804688 -2.082031 4.582031 -2.109375 4.21875 -2.109375 L 3.9375 -2.109375 L 3.9375 -2.375 C 4.144531 -2.351562 4.609375 -2.34375 5.328125 -2.34375 C 5.398438 -2.34375 5.753906 -2.351562 6.390625 -2.375 L 6.390625 -2.109375 C 6.117188 -2.109375 5.953125 -2.085938 5.890625 -2.046875 C 5.828125 -2.003906 5.796875 -1.894531 5.796875 -1.71875 L 5.796875 -0.203125 C 5.796875 -0.078125 5.769531 -0.015625 5.71875 -0.015625 C 5.675781 -0.015625 5.585938 -0.078125 5.453125 -0.203125 C 5.316406 -0.335938 5.21875 -0.453125 5.15625 -0.546875 C 5.019531 -0.304688 4.800781 -0.125 4.5 0 C 4.195312 0.125 3.875 0.1875 3.53125 0.1875 C 2.695312 0.1875 1.976562 -0.117188 1.375 -0.734375 Z M 1.375 -0.734375 "/></g></g></g><g fill="#d0cbc1" fill-opacity="1"><g transform="translate(146.70833, 227.667374)"><g><path d="M 0.28125 0 L 0.28125 -0.265625 L 0.5 -0.265625 C 0.8125 -0.265625 1.003906 -0.289062 1.078125 -0.34375 C 1.148438 -0.394531 1.1875 -0.507812 1.1875 -0.6875 L 1.1875 -5.234375 C 1.1875 -5.398438 1.148438 -5.507812 1.078125 -5.5625 C 1.003906 -5.613281 0.8125 -5.640625 0.5 -5.640625 L 0.28125 -5.640625 L 0.28125 -5.921875 L 5.0625 -5.921875 L 5.3125 -3.953125 L 5.09375 -3.953125 C 5.050781 -4.285156 5.003906 -4.546875 4.953125 -4.734375 C 4.898438 -4.921875 4.8125 -5.085938 4.6875 -5.234375 C 4.570312 -5.390625 4.414062 -5.492188 4.21875 -5.546875 C 4.019531 -5.609375 3.753906 -5.640625 3.421875 -5.640625 L 2.390625 -5.640625 C 2.191406 -5.640625 2.066406 -5.617188 2.015625 -5.578125 C 1.972656 -5.546875 1.953125 -5.453125 1.953125 -5.296875 L 1.953125 -3.09375 L 2.703125 -3.09375 C 3.097656 -3.09375 3.347656 -3.160156 3.453125 -3.296875 C 3.566406 -3.441406 3.625 -3.71875 3.625 -4.125 L 3.84375 -4.125 L 3.84375 -1.8125 L 3.625 -1.8125 C 3.625 -2.207031 3.566406 -2.472656 3.453125 -2.609375 C 3.347656 -2.753906 3.097656 -2.828125 2.703125 -2.828125 L 1.953125 -2.828125 L 1.953125 -0.6875 C 1.953125 -0.5625 1.960938 -0.472656 1.984375 -0.421875 C 2.003906 -0.378906 2.078125 -0.34375 2.203125 -0.3125 C 2.328125 -0.28125 2.519531 -0.265625 2.78125 -0.265625 L 3.078125 -0.265625 L 3.078125 0 C 2.867188 -0.0195312 2.378906 -0.03125 1.609375 -0.03125 C 0.929688 -0.03125 0.488281 -0.0195312 0.28125 0 Z M 0.28125 0 "/></g></g></g><g fill="#d0cbc1" fill-opacity="1"><g transform="translate(157.171249, 227.667374)"><g><path d="M 0.484375 -2.953125 C 0.484375 -3.835938 0.765625 -4.585938 1.328125 -5.203125 C 1.898438 -5.828125 2.582031 -6.140625 3.375 -6.140625 C 4.175781 -6.140625 4.859375 -5.828125 5.421875 -5.203125 C 5.992188 -4.585938 6.28125 -3.835938 6.28125 -2.953125 C 6.28125 -2.078125 5.992188 -1.332031 5.421875 -0.71875 C 4.847656 -0.113281 4.164062 0.1875 3.375 0.1875 C 2.59375 0.1875 1.914062 -0.113281 1.34375 -0.71875 C 0.769531 -1.320312 0.484375 -2.066406 0.484375 -2.953125 Z M 1.390625 -3.078125 C 1.390625 -2.535156 1.453125 -2.054688 1.578125 -1.640625 C 1.703125 -1.234375 1.867188 -0.914062 2.078125 -0.6875 C 2.285156 -0.46875 2.5 -0.300781 2.71875 -0.1875 C 2.9375 -0.0820312 3.160156 -0.03125 3.390625 -0.03125 C 3.609375 -0.03125 3.828125 -0.0820312 4.046875 -0.1875 C 4.265625 -0.289062 4.472656 -0.453125 4.671875 -0.671875 C 4.878906 -0.898438 5.046875 -1.21875 5.171875 -1.625 C 5.304688 -2.039062 5.375 -2.523438 5.375 -3.078125 C 5.375 -3.492188 5.328125 -3.875 5.234375 -4.21875 C 5.148438 -4.5625 5.035156 -4.835938 4.890625 -5.046875 C 4.753906 -5.253906 4.59375 -5.425781 4.40625 -5.5625 C 4.226562 -5.695312 4.050781 -5.789062 3.875 -5.84375 C 3.707031 -5.894531 3.539062 -5.921875 3.375 -5.921875 C 3.175781 -5.921875 2.96875 -5.875 2.75 -5.78125 C 2.539062 -5.6875 2.328125 -5.539062 2.109375 -5.34375 C 1.898438 -5.144531 1.726562 -4.847656 1.59375 -4.453125 C 1.457031 -4.066406 1.390625 -3.609375 1.390625 -3.078125 Z M 1.390625 -3.078125 "/></g></g></g><g fill="#d0cbc1" fill-opacity="1"><g transform="translate(168.722372, 227.667374)"><g><path d="M 0.3125 0 L 0.3125 -0.265625 L 0.515625 -0.265625 C 0.828125 -0.265625 1.019531 -0.289062 1.09375 -0.34375 C 1.164062 -0.394531 1.203125 -0.507812 1.203125 -0.6875 L 1.203125 -5.265625 C 1.203125 -5.429688 1.164062 -5.539062 1.09375 -5.59375 C 1.019531 -5.644531 0.828125 -5.671875 0.515625 -5.671875 L 0.3125 -5.671875 L 0.3125 -5.9375 L 3.03125 -5.9375 C 3.664062 -5.9375 4.203125 -5.78125 4.640625 -5.46875 C 5.085938 -5.164062 5.3125 -4.800781 5.3125 -4.375 C 5.3125 -4.050781 5.164062 -3.757812 4.875 -3.5 C 4.59375 -3.25 4.226562 -3.066406 3.78125 -2.953125 C 4.363281 -2.753906 4.71875 -2.421875 4.84375 -1.953125 L 4.953125 -1.25 C 4.984375 -1.082031 5.003906 -0.957031 5.015625 -0.875 C 5.035156 -0.789062 5.054688 -0.691406 5.078125 -0.578125 C 5.097656 -0.460938 5.125 -0.375 5.15625 -0.3125 C 5.1875 -0.257812 5.21875 -0.203125 5.25 -0.140625 C 5.289062 -0.0859375 5.335938 -0.0507812 5.390625 -0.03125 C 5.441406 -0.0078125 5.503906 0 5.578125 0 C 5.710938 0 5.835938 -0.0546875 5.953125 -0.171875 C 6.066406 -0.296875 6.132812 -0.492188 6.15625 -0.765625 C 6.164062 -0.859375 6.203125 -0.90625 6.265625 -0.90625 C 6.335938 -0.90625 6.375 -0.859375 6.375 -0.765625 C 6.375 -0.691406 6.359375 -0.601562 6.328125 -0.5 C 6.304688 -0.40625 6.269531 -0.300781 6.21875 -0.1875 C 6.164062 -0.0820312 6.078125 0.00390625 5.953125 0.078125 C 5.835938 0.148438 5.703125 0.1875 5.546875 0.1875 C 5.085938 0.1875 4.722656 0.0664062 4.453125 -0.171875 C 4.335938 -0.273438 4.253906 -0.394531 4.203125 -0.53125 C 4.148438 -0.664062 4.117188 -0.785156 4.109375 -0.890625 C 4.097656 -1.003906 4.09375 -1.179688 4.09375 -1.421875 C 4.09375 -1.753906 4.070312 -1.992188 4.03125 -2.140625 C 4 -2.285156 3.910156 -2.429688 3.765625 -2.578125 C 3.554688 -2.773438 3.285156 -2.875 2.953125 -2.875 L 1.953125 -2.875 L 1.953125 -0.6875 C 1.953125 -0.507812 1.988281 -0.394531 2.0625 -0.34375 C 2.132812 -0.289062 2.328125 -0.265625 2.640625 -0.265625 L 2.84375 -0.265625 L 2.84375 0 C 2.632812 -0.0195312 2.210938 -0.03125 1.578125 -0.03125 C 0.941406 -0.03125 0.519531 -0.0195312 0.3125 0 Z M 1.953125 -3.078125 L 2.921875 -3.078125 C 3.222656 -3.078125 3.476562 -3.113281 3.6875 -3.1875 C 3.894531 -3.257812 4.046875 -3.363281 4.140625 -3.5 C 4.242188 -3.632812 4.3125 -3.769531 4.34375 -3.90625 C 4.382812 -4.050781 4.40625 -4.207031 4.40625 -4.375 C 4.40625 -4.582031 4.382812 -4.757812 4.34375 -4.90625 C 4.300781 -5.0625 4.226562 -5.179688 4.125 -5.265625 C 4.03125 -5.359375 3.929688 -5.4375 3.828125 -5.5 C 3.734375 -5.5625 3.609375 -5.601562 3.453125 -5.625 C 3.296875 -5.644531 3.164062 -5.65625 3.0625 -5.65625 C 2.957031 -5.664062 2.820312 -5.671875 2.65625 -5.671875 C 2.375 -5.671875 2.203125 -5.664062 2.140625 -5.65625 C 2.078125 -5.644531 2.03125 -5.625 2 -5.59375 C 1.976562 -5.5625 1.960938 -5.53125 1.953125 -5.5 C 1.953125 -5.46875 1.953125 -5.410156 1.953125 -5.328125 Z M 1.953125 -3.078125 "/></g></g></g><g fill="#d0cbc1" fill-opacity="1"><g transform="translate(179.91643, 227.667374)"><g><path d="M 0.28125 0 L 0.28125 -0.265625 L 0.5 -0.265625 C 0.8125 -0.265625 1.003906 -0.289062 1.078125 -0.34375 C 1.148438 -0.394531 1.1875 -0.507812 1.1875 -0.6875 L 1.1875 -5.234375 C 1.1875 -5.398438 1.148438 -5.507812 1.078125 -5.5625 C 1.003906 -5.613281 0.8125 -5.640625 0.5 -5.640625 L 0.28125 -5.640625 L 0.28125 -5.921875 L 5.1875 -5.921875 L 5.4375 -3.953125 L 5.21875 -3.953125 C 5.175781 -4.285156 5.128906 -4.546875 5.078125 -4.734375 C 5.023438 -4.929688 4.9375 -5.101562 4.8125 -5.25 C 4.6875 -5.394531 4.519531 -5.492188 4.3125 -5.546875 C 4.101562 -5.609375 3.832031 -5.640625 3.5 -5.640625 L 2.390625 -5.640625 C 2.191406 -5.640625 2.066406 -5.617188 2.015625 -5.578125 C 1.972656 -5.546875 1.953125 -5.453125 1.953125 -5.296875 L 1.953125 -3.21875 L 2.734375 -3.21875 C 3.140625 -3.21875 3.398438 -3.285156 3.515625 -3.421875 C 3.628906 -3.554688 3.6875 -3.828125 3.6875 -4.234375 L 3.90625 -4.234375 L 3.90625 -1.921875 L 3.6875 -1.921875 C 3.6875 -2.316406 3.628906 -2.582031 3.515625 -2.71875 C 3.398438 -2.863281 3.140625 -2.9375 2.734375 -2.9375 L 1.953125 -2.9375 L 1.953125 -0.609375 C 1.953125 -0.460938 1.972656 -0.367188 2.015625 -0.328125 C 2.066406 -0.285156 2.191406 -0.265625 2.390625 -0.265625 L 3.546875 -0.265625 C 3.796875 -0.265625 4.007812 -0.28125 4.1875 -0.3125 C 4.375 -0.34375 4.53125 -0.398438 4.65625 -0.484375 C 4.78125 -0.566406 4.882812 -0.65625 4.96875 -0.75 C 5.0625 -0.84375 5.140625 -0.972656 5.203125 -1.140625 C 5.265625 -1.304688 5.3125 -1.46875 5.34375 -1.625 C 5.375 -1.78125 5.410156 -1.988281 5.453125 -2.25 L 5.671875 -2.25 L 5.3125 0 Z M 0.28125 0 "/></g></g></g><g fill="#d0cbc1" fill-opacity="1"><g transform="translate(190.621643, 227.667374)"><g><path d="M 0.3125 0 L 0.3125 -0.265625 L 0.515625 -0.265625 C 0.828125 -0.265625 1.019531 -0.289062 1.09375 -0.34375 C 1.164062 -0.394531 1.203125 -0.507812 1.203125 -0.6875 L 1.203125 -5.265625 C 1.203125 -5.429688 1.164062 -5.539062 1.09375 -5.59375 C 1.019531 -5.644531 0.828125 -5.671875 0.515625 -5.671875 L 0.3125 -5.671875 L 0.3125 -5.9375 L 3.484375 -5.9375 C 4.234375 -5.9375 4.863281 -5.640625 5.375 -5.046875 C 5.894531 -4.460938 6.15625 -3.753906 6.15625 -2.921875 C 6.15625 -2.109375 5.894531 -1.414062 5.375 -0.84375 C 4.851562 -0.28125 4.222656 0 3.484375 0 Z M 1.953125 -0.609375 C 1.953125 -0.460938 1.972656 -0.367188 2.015625 -0.328125 C 2.054688 -0.285156 2.175781 -0.265625 2.375 -0.265625 L 3.25 -0.265625 C 3.632812 -0.265625 3.957031 -0.34375 4.21875 -0.5 C 4.476562 -0.65625 4.671875 -0.828125 4.796875 -1.015625 C 5.117188 -1.453125 5.28125 -2.085938 5.28125 -2.921875 C 5.28125 -3.804688 5.128906 -4.453125 4.828125 -4.859375 C 4.441406 -5.398438 3.914062 -5.671875 3.25 -5.671875 L 2.375 -5.671875 C 2.175781 -5.671875 2.054688 -5.648438 2.015625 -5.609375 C 1.972656 -5.566406 1.953125 -5.472656 1.953125 -5.328125 Z M 1.953125 -0.609375 "/></g></g></g><g fill="#d0cbc1" fill-opacity="1"><g transform="translate(202.049491, 227.667374)"><g><path d="M 0.3125 0 L 0.3125 -0.265625 L 0.515625 -0.265625 C 0.828125 -0.265625 1.019531 -0.289062 1.09375 -0.34375 C 1.164062 -0.394531 1.203125 -0.507812 1.203125 -0.6875 L 1.203125 -5.265625 C 1.203125 -5.429688 1.164062 -5.539062 1.09375 -5.59375 C 1.019531 -5.644531 0.828125 -5.671875 0.515625 -5.671875 L 0.3125 -5.671875 L 0.3125 -5.9375 L 3.03125 -5.9375 C 3.664062 -5.9375 4.203125 -5.78125 4.640625 -5.46875 C 5.085938 -5.164062 5.3125 -4.800781 5.3125 -4.375 C 5.3125 -4.050781 5.164062 -3.757812 4.875 -3.5 C 4.59375 -3.25 4.226562 -3.066406 3.78125 -2.953125 C 4.363281 -2.753906 4.71875 -2.421875 4.84375 -1.953125 L 4.953125 -1.25 C 4.984375 -1.082031 5.003906 -0.957031 5.015625 -0.875 C 5.035156 -0.789062 5.054688 -0.691406 5.078125 -0.578125 C 5.097656 -0.460938 5.125 -0.375 5.15625 -0.3125 C 5.1875 -0.257812 5.21875 -0.203125 5.25 -0.140625 C 5.289062 -0.0859375 5.335938 -0.0507812 5.390625 -0.03125 C 5.441406 -0.0078125 5.503906 0 5.578125 0 C 5.710938 0 5.835938 -0.0546875 5.953125 -0.171875 C 6.066406 -0.296875 6.132812 -0.492188 6.15625 -0.765625 C 6.164062 -0.859375 6.203125 -0.90625 6.265625 -0.90625 C 6.335938 -0.90625 6.375 -0.859375 6.375 -0.765625 C 6.375 -0.691406 6.359375 -0.601562 6.328125 -0.5 C 6.304688 -0.40625 6.269531 -0.300781 6.21875 -0.1875 C 6.164062 -0.0820312 6.078125 0.00390625 5.953125 0.078125 C 5.835938 0.148438 5.703125 0.1875 5.546875 0.1875 C 5.085938 0.1875 4.722656 0.0664062 4.453125 -0.171875 C 4.335938 -0.273438 4.253906 -0.394531 4.203125 -0.53125 C 4.148438 -0.664062 4.117188 -0.785156 4.109375 -0.890625 C 4.097656 -1.003906 4.09375 -1.179688 4.09375 -1.421875 C 4.09375 -1.753906 4.070312 -1.992188 4.03125 -2.140625 C 4 -2.285156 3.910156 -2.429688 3.765625 -2.578125 C 3.554688 -2.773438 3.285156 -2.875 2.953125 -2.875 L 1.953125 -2.875 L 1.953125 -0.6875 C 1.953125 -0.507812 1.988281 -0.394531 2.0625 -0.34375 C 2.132812 -0.289062 2.328125 -0.265625 2.640625 -0.265625 L 2.84375 -0.265625 L 2.84375 0 C 2.632812 -0.0195312 2.210938 -0.03125 1.578125 -0.03125 C 0.941406 -0.03125 0.519531 -0.0195312 0.3125 0 Z M 1.953125 -3.078125 L 2.921875 -3.078125 C 3.222656 -3.078125 3.476562 -3.113281 3.6875 -3.1875 C 3.894531 -3.257812 4.046875 -3.363281 4.140625 -3.5 C 4.242188 -3.632812 4.3125 -3.769531 4.34375 -3.90625 C 4.382812 -4.050781 4.40625 -4.207031 4.40625 -4.375 C 4.40625 -4.582031 4.382812 -4.757812 4.34375 -4.90625 C 4.300781 -5.0625 4.226562 -5.179688 4.125 -5.265625 C 4.03125 -5.359375 3.929688 -5.4375 3.828125 -5.5 C 3.734375 -5.5625 3.609375 -5.601562 3.453125 -5.625 C 3.296875 -5.644531 3.164062 -5.65625 3.0625 -5.65625 C 2.957031 -5.664062 2.820312 -5.671875 2.65625 -5.671875 C 2.375 -5.671875 2.203125 -5.664062 2.140625 -5.65625 C 2.078125 -5.644531 2.03125 -5.625 2 -5.59375 C 1.976562 -5.5625 1.960938 -5.53125 1.953125 -5.5 C 1.953125 -5.46875 1.953125 -5.410156 1.953125 -5.328125 Z M 1.953125 -3.078125 "/></g></g></g><g fill="#d0cbc1" fill-opacity="1"><g transform="translate(213.243546, 227.667374)"><g><path d="M 0.28125 0 L 0.28125 -0.265625 C 0.789062 -0.273438 1.113281 -0.472656 1.25 -0.859375 L 3.0625 -6.0625 C 3.082031 -6.125 3.101562 -6.164062 3.125 -6.1875 C 3.15625 -6.21875 3.203125 -6.234375 3.265625 -6.234375 C 3.296875 -6.234375 3.320312 -6.226562 3.34375 -6.21875 C 3.363281 -6.21875 3.378906 -6.207031 3.390625 -6.1875 C 3.410156 -6.164062 3.421875 -6.148438 3.421875 -6.140625 C 3.429688 -6.128906 3.445312 -6.101562 3.46875 -6.0625 L 5.34375 -0.609375 C 5.382812 -0.472656 5.453125 -0.378906 5.546875 -0.328125 C 5.640625 -0.285156 5.816406 -0.265625 6.078125 -0.265625 L 6.234375 -0.265625 L 6.234375 0 C 5.867188 -0.0195312 5.488281 -0.03125 5.09375 -0.03125 C 4.46875 -0.03125 4.050781 -0.0195312 3.84375 0 L 3.84375 -0.265625 C 4.320312 -0.265625 4.5625 -0.351562 4.5625 -0.53125 C 4.5625 -0.539062 4.554688 -0.582031 4.546875 -0.65625 L 4.078125 -1.984375 L 1.9375 -1.984375 L 1.53125 -0.84375 C 1.519531 -0.820312 1.515625 -0.78125 1.515625 -0.71875 C 1.515625 -0.59375 1.570312 -0.484375 1.6875 -0.390625 C 1.800781 -0.304688 1.960938 -0.265625 2.171875 -0.265625 L 2.171875 0 C 1.609375 -0.0195312 1.273438 -0.03125 1.171875 -0.03125 C 0.972656 -0.03125 0.675781 -0.0195312 0.28125 0 Z M 2.03125 -2.25 L 3.984375 -2.25 L 3 -5.078125 Z M 2.03125 -2.25 "/></g></g></g><g fill="#d0cbc1" fill-opacity="1"><g transform="translate(224.560874, 227.667374)"><g><path d="M 1.375 -0.734375 C 0.78125 -1.347656 0.484375 -2.09375 0.484375 -2.96875 C 0.484375 -3.851562 0.785156 -4.601562 1.390625 -5.21875 C 1.992188 -5.832031 2.703125 -6.140625 3.515625 -6.140625 C 3.722656 -6.140625 3.910156 -6.113281 4.078125 -6.0625 C 4.253906 -6.019531 4.410156 -5.953125 4.546875 -5.859375 C 4.691406 -5.765625 4.796875 -5.6875 4.859375 -5.625 C 4.929688 -5.5625 5.019531 -5.484375 5.125 -5.390625 L 5.5625 -6.03125 C 5.601562 -6.101562 5.644531 -6.140625 5.6875 -6.140625 C 5.738281 -6.140625 5.769531 -6.125 5.78125 -6.09375 C 5.789062 -6.070312 5.796875 -6.015625 5.796875 -5.921875 L 5.796875 -3.859375 C 5.796875 -3.765625 5.789062 -3.707031 5.78125 -3.6875 C 5.769531 -3.664062 5.726562 -3.65625 5.65625 -3.65625 C 5.601562 -3.65625 5.566406 -3.660156 5.546875 -3.671875 C 5.535156 -3.691406 5.523438 -3.734375 5.515625 -3.796875 C 5.429688 -4.429688 5.210938 -4.929688 4.859375 -5.296875 C 4.503906 -5.671875 4.09375 -5.859375 3.625 -5.859375 C 3.476562 -5.859375 3.328125 -5.84375 3.171875 -5.8125 C 3.023438 -5.78125 2.835938 -5.703125 2.609375 -5.578125 C 2.390625 -5.460938 2.191406 -5.304688 2.015625 -5.109375 C 1.847656 -4.921875 1.703125 -4.640625 1.578125 -4.265625 C 1.453125 -3.898438 1.390625 -3.46875 1.390625 -2.96875 C 1.390625 -2.488281 1.453125 -2.0625 1.578125 -1.6875 C 1.703125 -1.3125 1.847656 -1.023438 2.015625 -0.828125 C 2.191406 -0.640625 2.394531 -0.484375 2.625 -0.359375 C 2.851562 -0.234375 3.046875 -0.15625 3.203125 -0.125 C 3.367188 -0.09375 3.523438 -0.078125 3.671875 -0.078125 C 3.773438 -0.078125 3.882812 -0.0859375 4 -0.109375 C 4.113281 -0.128906 4.253906 -0.171875 4.421875 -0.234375 C 4.597656 -0.296875 4.738281 -0.40625 4.84375 -0.5625 C 4.957031 -0.71875 5.015625 -0.90625 5.015625 -1.125 L 5.015625 -1.6875 C 5.015625 -1.863281 4.972656 -1.976562 4.890625 -2.03125 C 4.804688 -2.082031 4.582031 -2.109375 4.21875 -2.109375 L 3.9375 -2.109375 L 3.9375 -2.375 C 4.144531 -2.351562 4.609375 -2.34375 5.328125 -2.34375 C 5.398438 -2.34375 5.753906 -2.351562 6.390625 -2.375 L 6.390625 -2.109375 C 6.117188 -2.109375 5.953125 -2.085938 5.890625 -2.046875 C 5.828125 -2.003906 5.796875 -1.894531 5.796875 -1.71875 L 5.796875 -0.203125 C 5.796875 -0.078125 5.769531 -0.015625 5.71875 -0.015625 C 5.675781 -0.015625 5.585938 -0.078125 5.453125 -0.203125 C 5.316406 -0.335938 5.21875 -0.453125 5.15625 -0.546875 C 5.019531 -0.304688 4.800781 -0.125 4.5 0 C 4.195312 0.125 3.875 0.1875 3.53125 0.1875 C 2.695312 0.1875 1.976562 -0.117188 1.375 -0.734375 Z M 1.375 -0.734375 "/></g></g></g><g fill="#d0cbc1" fill-opacity="1"><g transform="translate(236.171507, 227.667374)"><g><path d="M 0.484375 -0.015625 L 0.484375 -1.765625 C 0.484375 -1.828125 0.484375 -1.867188 0.484375 -1.890625 C 0.492188 -1.910156 0.503906 -1.925781 0.515625 -1.9375 C 0.535156 -1.957031 0.5625 -1.96875 0.59375 -1.96875 C 0.664062 -1.96875 0.703125 -1.941406 0.703125 -1.890625 C 0.722656 -1.316406 0.90625 -0.867188 1.25 -0.546875 C 1.582031 -0.234375 2.039062 -0.078125 2.625 -0.078125 C 2.96875 -0.078125 3.242188 -0.203125 3.453125 -0.453125 C 3.671875 -0.703125 3.78125 -0.992188 3.78125 -1.328125 C 3.78125 -1.640625 3.691406 -1.90625 3.515625 -2.125 C 3.441406 -2.226562 3.351562 -2.3125 3.25 -2.375 C 3.15625 -2.4375 3.078125 -2.476562 3.015625 -2.5 C 2.960938 -2.519531 2.882812 -2.539062 2.78125 -2.5625 C 2.0625 -2.738281 1.675781 -2.835938 1.625 -2.859375 C 1.28125 -2.972656 1.003906 -3.175781 0.796875 -3.46875 C 0.585938 -3.757812 0.484375 -4.085938 0.484375 -4.453125 C 0.484375 -4.910156 0.644531 -5.304688 0.96875 -5.640625 C 1.300781 -5.972656 1.707031 -6.140625 2.1875 -6.140625 C 2.425781 -6.140625 2.644531 -6.097656 2.84375 -6.015625 C 3.039062 -5.941406 3.179688 -5.867188 3.265625 -5.796875 C 3.347656 -5.734375 3.453125 -5.644531 3.578125 -5.53125 L 3.875 -6.015625 C 3.925781 -6.097656 3.972656 -6.140625 4.015625 -6.140625 C 4.054688 -6.140625 4.082031 -6.125 4.09375 -6.09375 C 4.101562 -6.070312 4.109375 -6.015625 4.109375 -5.921875 L 4.109375 -4.171875 C 4.109375 -4.109375 4.101562 -4.066406 4.09375 -4.046875 C 4.09375 -4.023438 4.082031 -4.003906 4.0625 -3.984375 C 4.050781 -3.972656 4.03125 -3.96875 4 -3.96875 C 3.9375 -3.96875 3.898438 -4.003906 3.890625 -4.078125 C 3.722656 -5.285156 3.15625 -5.890625 2.1875 -5.890625 C 1.863281 -5.890625 1.59375 -5.773438 1.375 -5.546875 C 1.15625 -5.328125 1.046875 -5.0625 1.046875 -4.75 C 1.046875 -4.5 1.125 -4.269531 1.28125 -4.0625 C 1.4375 -3.851562 1.648438 -3.710938 1.921875 -3.640625 L 3.03125 -3.375 C 3.40625 -3.289062 3.71875 -3.082031 3.96875 -2.75 C 4.21875 -2.425781 4.34375 -2.050781 4.34375 -1.625 C 4.34375 -1.125 4.179688 -0.695312 3.859375 -0.34375 C 3.535156 0.0078125 3.125 0.1875 2.625 0.1875 C 2.269531 0.1875 1.953125 0.125 1.671875 0 C 1.390625 -0.113281 1.175781 -0.253906 1.03125 -0.421875 C 0.914062 -0.222656 0.816406 -0.0703125 0.734375 0.03125 L 0.71875 0.078125 C 0.664062 0.148438 0.617188 0.1875 0.578125 0.1875 C 0.535156 0.1875 0.507812 0.171875 0.5 0.140625 C 0.488281 0.117188 0.484375 0.0664062 0.484375 -0.015625 Z M 0.484375 -0.015625 "/></g></g></g><g fill="#d0cbc1" fill-opacity="1"><g transform="translate(245.788516, 227.667374)"><g><path d="M 0.28125 0 L 0.28125 -0.265625 L 0.5 -0.265625 C 0.8125 -0.265625 1.003906 -0.289062 1.078125 -0.34375 C 1.148438 -0.394531 1.1875 -0.507812 1.1875 -0.6875 L 1.1875 -5.265625 C 1.1875 -5.429688 1.148438 -5.539062 1.078125 -5.59375 C 1.003906 -5.644531 0.8125 -5.671875 0.5 -5.671875 L 0.28125 -5.671875 L 0.28125 -5.9375 C 0.488281 -5.925781 0.921875 -5.921875 1.578125 -5.921875 C 2.222656 -5.921875 2.648438 -5.925781 2.859375 -5.9375 L 2.859375 -5.671875 L 2.640625 -5.671875 C 2.328125 -5.671875 2.132812 -5.644531 2.0625 -5.59375 C 1.988281 -5.539062 1.953125 -5.429688 1.953125 -5.265625 L 1.953125 -3.234375 L 4.5625 -3.234375 L 4.5625 -5.265625 C 4.5625 -5.429688 4.523438 -5.539062 4.453125 -5.59375 C 4.378906 -5.644531 4.1875 -5.671875 3.875 -5.671875 L 3.65625 -5.671875 L 3.65625 -5.9375 C 3.863281 -5.925781 4.296875 -5.921875 4.953125 -5.921875 C 5.597656 -5.921875 6.023438 -5.925781 6.234375 -5.9375 L 6.234375 -5.671875 L 6.015625 -5.671875 C 5.703125 -5.671875 5.507812 -5.644531 5.4375 -5.59375 C 5.363281 -5.539062 5.328125 -5.429688 5.328125 -5.265625 L 5.328125 -0.6875 C 5.328125 -0.507812 5.363281 -0.394531 5.4375 -0.34375 C 5.507812 -0.289062 5.703125 -0.265625 6.015625 -0.265625 L 6.234375 -0.265625 L 6.234375 0 C 6.023438 -0.0195312 5.59375 -0.03125 4.9375 -0.03125 C 4.289062 -0.03125 3.863281 -0.0195312 3.65625 0 L 3.65625 -0.265625 L 3.875 -0.265625 C 4.1875 -0.265625 4.378906 -0.289062 4.453125 -0.34375 C 4.523438 -0.394531 4.5625 -0.507812 4.5625 -0.6875 L 4.5625 -2.953125 L 1.953125 -2.953125 L 1.953125 -0.6875 C 1.953125 -0.507812 1.988281 -0.394531 2.0625 -0.34375 C 2.132812 -0.289062 2.328125 -0.265625 2.640625 -0.265625 L 2.859375 -0.265625 L 2.859375 0 C 2.648438 -0.0195312 2.21875 -0.03125 1.5625 -0.03125 C 0.914062 -0.03125 0.488281 -0.0195312 0.28125 0 Z M 0.28125 0 "/></g></g></g><g fill="#d0cbc1" fill-opacity="1"><g transform="translate(257.105849, 227.667374)"><g><path d="M 0.484375 -2.953125 C 0.484375 -3.835938 0.765625 -4.585938 1.328125 -5.203125 C 1.898438 -5.828125 2.582031 -6.140625 3.375 -6.140625 C 4.175781 -6.140625 4.859375 -5.828125 5.421875 -5.203125 C 5.992188 -4.585938 6.28125 -3.835938 6.28125 -2.953125 C 6.28125 -2.078125 5.992188 -1.332031 5.421875 -0.71875 C 4.847656 -0.113281 4.164062 0.1875 3.375 0.1875 C 2.59375 0.1875 1.914062 -0.113281 1.34375 -0.71875 C 0.769531 -1.320312 0.484375 -2.066406 0.484375 -2.953125 Z M 1.390625 -3.078125 C 1.390625 -2.535156 1.453125 -2.054688 1.578125 -1.640625 C 1.703125 -1.234375 1.867188 -0.914062 2.078125 -0.6875 C 2.285156 -0.46875 2.5 -0.300781 2.71875 -0.1875 C 2.9375 -0.0820312 3.160156 -0.03125 3.390625 -0.03125 C 3.609375 -0.03125 3.828125 -0.0820312 4.046875 -0.1875 C 4.265625 -0.289062 4.472656 -0.453125 4.671875 -0.671875 C 4.878906 -0.898438 5.046875 -1.21875 5.171875 -1.625 C 5.304688 -2.039062 5.375 -2.523438 5.375 -3.078125 C 5.375 -3.492188 5.328125 -3.875 5.234375 -4.21875 C 5.148438 -4.5625 5.035156 -4.835938 4.890625 -5.046875 C 4.753906 -5.253906 4.59375 -5.425781 4.40625 -5.5625 C 4.226562 -5.695312 4.050781 -5.789062 3.875 -5.84375 C 3.707031 -5.894531 3.539062 -5.921875 3.375 -5.921875 C 3.175781 -5.921875 2.96875 -5.875 2.75 -5.78125 C 2.539062 -5.6875 2.328125 -5.539062 2.109375 -5.34375 C 1.898438 -5.144531 1.726562 -4.847656 1.59375 -4.453125 C 1.457031 -4.066406 1.390625 -3.609375 1.390625 -3.078125 Z M 1.390625 -3.078125 "/></g></g></g><g fill="#d0cbc1" fill-opacity="1"><g transform="translate(268.656977, 227.667374)"><g><path d="M 0.28125 0 L 0.28125 -0.265625 L 0.5 -0.265625 C 0.8125 -0.265625 1.003906 -0.289062 1.078125 -0.34375 C 1.148438 -0.394531 1.1875 -0.507812 1.1875 -0.6875 L 1.1875 -5.265625 C 1.1875 -5.429688 1.148438 -5.539062 1.078125 -5.59375 C 1.003906 -5.644531 0.8125 -5.671875 0.5 -5.671875 L 0.28125 -5.671875 L 0.28125 -5.9375 C 0.488281 -5.925781 0.929688 -5.921875 1.609375 -5.921875 C 2.378906 -5.921875 2.867188 -5.925781 3.078125 -5.9375 L 3.078125 -5.671875 L 2.78125 -5.671875 C 2.519531 -5.671875 2.328125 -5.65625 2.203125 -5.625 C 2.078125 -5.59375 2.003906 -5.550781 1.984375 -5.5 C 1.960938 -5.457031 1.953125 -5.375 1.953125 -5.25 L 1.953125 -0.609375 C 1.953125 -0.460938 1.972656 -0.367188 2.015625 -0.328125 C 2.066406 -0.285156 2.191406 -0.265625 2.390625 -0.265625 L 3.09375 -0.265625 C 3.394531 -0.265625 3.648438 -0.304688 3.859375 -0.390625 C 4.066406 -0.484375 4.226562 -0.582031 4.34375 -0.6875 C 4.457031 -0.800781 4.550781 -0.960938 4.625 -1.171875 C 4.707031 -1.378906 4.757812 -1.550781 4.78125 -1.6875 C 4.800781 -1.820312 4.820312 -2.007812 4.84375 -2.25 L 5.0625 -2.25 L 4.828125 0 Z M 0.28125 0 "/></g></g></g><g fill="#d0cbc1" fill-opacity="1"><g transform="translate(278.886106, 227.667374)"><g><path d="M 0.3125 0 L 0.3125 -0.265625 L 0.515625 -0.265625 C 0.828125 -0.265625 1.019531 -0.289062 1.09375 -0.34375 C 1.164062 -0.394531 1.203125 -0.507812 1.203125 -0.6875 L 1.203125 -5.265625 C 1.203125 -5.429688 1.164062 -5.539062 1.09375 -5.59375 C 1.019531 -5.644531 0.828125 -5.671875 0.515625 -5.671875 L 0.3125 -5.671875 L 0.3125 -5.9375 L 3.484375 -5.9375 C 4.234375 -5.9375 4.863281 -5.640625 5.375 -5.046875 C 5.894531 -4.460938 6.15625 -3.753906 6.15625 -2.921875 C 6.15625 -2.109375 5.894531 -1.414062 5.375 -0.84375 C 4.851562 -0.28125 4.222656 0 3.484375 0 Z M 1.953125 -0.609375 C 1.953125 -0.460938 1.972656 -0.367188 2.015625 -0.328125 C 2.054688 -0.285156 2.175781 -0.265625 2.375 -0.265625 L 3.25 -0.265625 C 3.632812 -0.265625 3.957031 -0.34375 4.21875 -0.5 C 4.476562 -0.65625 4.671875 -0.828125 4.796875 -1.015625 C 5.117188 -1.453125 5.28125 -2.085938 5.28125 -2.921875 C 5.28125 -3.804688 5.128906 -4.453125 4.828125 -4.859375 C 4.441406 -5.398438 3.914062 -5.671875 3.25 -5.671875 L 2.375 -5.671875 C 2.175781 -5.671875 2.054688 -5.648438 2.015625 -5.609375 C 1.972656 -5.566406 1.953125 -5.472656 1.953125 -5.328125 Z M 1.953125 -0.609375 "/></g></g></g><g fill="#d0cbc1" fill-opacity="1"><g transform="translate(290.31396, 227.667374)"><g><path d="M 0.28125 0 L 0.28125 -0.265625 L 0.5 -0.265625 C 0.8125 -0.265625 1.003906 -0.289062 1.078125 -0.34375 C 1.148438 -0.394531 1.1875 -0.507812 1.1875 -0.6875 L 1.1875 -5.234375 C 1.1875 -5.398438 1.148438 -5.507812 1.078125 -5.5625 C 1.003906 -5.613281 0.8125 -5.640625 0.5 -5.640625 L 0.28125 -5.640625 L 0.28125 -5.921875 L 5.1875 -5.921875 L 5.4375 -3.953125 L 5.21875 -3.953125 C 5.175781 -4.285156 5.128906 -4.546875 5.078125 -4.734375 C 5.023438 -4.929688 4.9375 -5.101562 4.8125 -5.25 C 4.6875 -5.394531 4.519531 -5.492188 4.3125 -5.546875 C 4.101562 -5.609375 3.832031 -5.640625 3.5 -5.640625 L 2.390625 -5.640625 C 2.191406 -5.640625 2.066406 -5.617188 2.015625 -5.578125 C 1.972656 -5.546875 1.953125 -5.453125 1.953125 -5.296875 L 1.953125 -3.21875 L 2.734375 -3.21875 C 3.140625 -3.21875 3.398438 -3.285156 3.515625 -3.421875 C 3.628906 -3.554688 3.6875 -3.828125 3.6875 -4.234375 L 3.90625 -4.234375 L 3.90625 -1.921875 L 3.6875 -1.921875 C 3.6875 -2.316406 3.628906 -2.582031 3.515625 -2.71875 C 3.398438 -2.863281 3.140625 -2.9375 2.734375 -2.9375 L 1.953125 -2.9375 L 1.953125 -0.609375 C 1.953125 -0.460938 1.972656 -0.367188 2.015625 -0.328125 C 2.066406 -0.285156 2.191406 -0.265625 2.390625 -0.265625 L 3.546875 -0.265625 C 3.796875 -0.265625 4.007812 -0.28125 4.1875 -0.3125 C 4.375 -0.34375 4.53125 -0.398438 4.65625 -0.484375 C 4.78125 -0.566406 4.882812 -0.65625 4.96875 -0.75 C 5.0625 -0.84375 5.140625 -0.972656 5.203125 -1.140625 C 5.265625 -1.304688 5.3125 -1.46875 5.34375 -1.625 C 5.375 -1.78125 5.410156 -1.988281 5.453125 -2.25 L 5.671875 -2.25 L 5.3125 0 Z M 0.28125 0 "/></g></g></g><g fill="#d0cbc1" fill-opacity="1"><g transform="translate(301.019178, 227.667374)"><g><path d="M 0.3125 0 L 0.3125 -0.265625 L 0.515625 -0.265625 C 0.828125 -0.265625 1.019531 -0.289062 1.09375 -0.34375 C 1.164062 -0.394531 1.203125 -0.507812 1.203125 -0.6875 L 1.203125 -5.265625 C 1.203125 -5.429688 1.164062 -5.539062 1.09375 -5.59375 C 1.019531 -5.644531 0.828125 -5.671875 0.515625 -5.671875 L 0.3125 -5.671875 L 0.3125 -5.9375 L 3.03125 -5.9375 C 3.664062 -5.9375 4.203125 -5.78125 4.640625 -5.46875 C 5.085938 -5.164062 5.3125 -4.800781 5.3125 -4.375 C 5.3125 -4.050781 5.164062 -3.757812 4.875 -3.5 C 4.59375 -3.25 4.226562 -3.066406 3.78125 -2.953125 C 4.363281 -2.753906 4.71875 -2.421875 4.84375 -1.953125 L 4.953125 -1.25 C 4.984375 -1.082031 5.003906 -0.957031 5.015625 -0.875 C 5.035156 -0.789062 5.054688 -0.691406 5.078125 -0.578125 C 5.097656 -0.460938 5.125 -0.375 5.15625 -0.3125 C 5.1875 -0.257812 5.21875 -0.203125 5.25 -0.140625 C 5.289062 -0.0859375 5.335938 -0.0507812 5.390625 -0.03125 C 5.441406 -0.0078125 5.503906 0 5.578125 0 C 5.710938 0 5.835938 -0.0546875 5.953125 -0.171875 C 6.066406 -0.296875 6.132812 -0.492188 6.15625 -0.765625 C 6.164062 -0.859375 6.203125 -0.90625 6.265625 -0.90625 C 6.335938 -0.90625 6.375 -0.859375 6.375 -0.765625 C 6.375 -0.691406 6.359375 -0.601562 6.328125 -0.5 C 6.304688 -0.40625 6.269531 -0.300781 6.21875 -0.1875 C 6.164062 -0.0820312 6.078125 0.00390625 5.953125 0.078125 C 5.835938 0.148438 5.703125 0.1875 5.546875 0.1875 C 5.085938 0.1875 4.722656 0.0664062 4.453125 -0.171875 C 4.335938 -0.273438 4.253906 -0.394531 4.203125 -0.53125 C 4.148438 -0.664062 4.117188 -0.785156 4.109375 -0.890625 C 4.097656 -1.003906 4.09375 -1.179688 4.09375 -1.421875 C 4.09375 -1.753906 4.070312 -1.992188 4.03125 -2.140625 C 4 -2.285156 3.910156 -2.429688 3.765625 -2.578125 C 3.554688 -2.773438 3.285156 -2.875 2.953125 -2.875 L 1.953125 -2.875 L 1.953125 -0.6875 C 1.953125 -0.507812 1.988281 -0.394531 2.0625 -0.34375 C 2.132812 -0.289062 2.328125 -0.265625 2.640625 -0.265625 L 2.84375 -0.265625 L 2.84375 0 C 2.632812 -0.0195312 2.210938 -0.03125 1.578125 -0.03125 C 0.941406 -0.03125 0.519531 -0.0195312 0.3125 0 Z M 1.953125 -3.078125 L 2.921875 -3.078125 C 3.222656 -3.078125 3.476562 -3.113281 3.6875 -3.1875 C 3.894531 -3.257812 4.046875 -3.363281 4.140625 -3.5 C 4.242188 -3.632812 4.3125 -3.769531 4.34375 -3.90625 C 4.382812 -4.050781 4.40625 -4.207031 4.40625 -4.375 C 4.40625 -4.582031 4.382812 -4.757812 4.34375 -4.90625 C 4.300781 -5.0625 4.226562 -5.179688 4.125 -5.265625 C 4.03125 -5.359375 3.929688 -5.4375 3.828125 -5.5 C 3.734375 -5.5625 3.609375 -5.601562 3.453125 -5.625 C 3.296875 -5.644531 3.164062 -5.65625 3.0625 -5.65625 C 2.957031 -5.664062 2.820312 -5.671875 2.65625 -5.671875 C 2.375 -5.671875 2.203125 -5.664062 2.140625 -5.65625 C 2.078125 -5.644531 2.03125 -5.625 2 -5.59375 C 1.976562 -5.5625 1.960938 -5.53125 1.953125 -5.5 C 1.953125 -5.46875 1.953125 -5.410156 1.953125 -5.328125 Z M 1.953125 -3.078125 "/></g></g></g></svg>