<svg width="50" height="50" viewBox="0 0 50 50" fill="none" xmlns="http://www.w3.org/2000/svg">
<path d="M42.4801 35.1184C42.3966 34.6024 42.0731 34.1614 41.5886 33.8994L34.4211 29.6764L34.3621 29.6434C34.0615 29.493 33.7297 29.4159 33.3936 29.4184C32.7931 29.4184 32.2196 29.6459 31.8216 30.0449L29.7061 32.1614C29.6156 32.2474 29.3206 32.3719 29.2311 32.3764C29.2066 32.3744 26.7696 32.1989 22.2831 27.7119C17.8046 23.2344 17.6146 20.7899 17.6131 20.7899C17.6156 20.6649 17.7386 20.3709 17.8261 20.2799L19.6301 18.4764C20.2656 17.8394 20.4561 16.7834 20.0791 15.9654L16.0951 8.46888C15.8056 7.87288 15.2431 7.50488 14.6191 7.50488C14.1776 7.50488 13.7516 7.68788 13.4186 8.02038L8.50108 12.9269C8.02958 13.3959 7.62358 14.2159 7.53508 14.8759C7.49208 15.1914 6.61958 22.7224 16.9446 33.0489C25.7101 41.8134 32.5451 42.4944 34.4326 42.4944C34.6624 42.4973 34.8923 42.4855 35.1206 42.4589C35.7786 42.3709 36.5976 41.9659 37.0661 41.4964L41.9796 36.5834C42.3806 36.1804 42.5636 35.6479 42.4801 35.1184Z" fill="#0A265C"/>
</svg>
