<svg width="50" height="50" viewBox="0 0 50 50" fill="none" xmlns="http://www.w3.org/2000/svg">
<path d="M48.2137 25.0004C48.2137 31.1572 45.7679 37.0619 41.4144 41.4154C37.0609 45.7689 31.1563 48.2147 24.9994 48.2147C18.8426 48.2147 12.938 45.7689 8.58446 41.4154C4.23094 37.0619 1.78516 31.1572 1.78516 25.0004M48.2137 25.0004C48.2137 18.8436 45.7679 12.939 41.4144 8.58544C37.0609 4.23192 31.1563 1.78613 24.9994 1.78613C18.8426 1.78613 12.938 4.23192 8.58446 8.58544C4.23094 12.939 1.78516 18.8436 1.78516 25.0004M48.2137 25.0004H1.78516" stroke="#0A265C" stroke-linecap="round" stroke-linejoin="round"/>
<path d="M33.9275 25.0004C33.4889 33.4897 30.362 41.6195 24.9989 48.2147C19.6357 41.6195 16.5089 33.4897 16.0703 25.0004C16.5089 16.5112 19.6357 8.38132 24.9989 1.78613C30.362 8.38132 33.4889 16.5112 33.9275 25.0004Z" stroke="#0A265C" stroke-linecap="round" stroke-linejoin="round"/>
</svg>
