<svg width="50" height="50" viewBox="0 0 50 50" fill="none" xmlns="http://www.w3.org/2000/svg">
<path d="M44.3572 15.2125C44.1289 14.3528 43.6787 13.5682 43.0518 12.9372C42.4249 12.3063 41.6431 11.8511 40.7849 11.6174C37.6342 10.7674 25.0002 10.7674 25.0002 10.7674C25.0002 10.7674 12.3662 10.7674 9.2155 11.6174C8.35729 11.8511 7.57557 12.3063 6.94863 12.9372C6.32169 13.5682 5.87155 14.3528 5.64327 15.2125C4.79883 18.3833 4.79883 25 4.79883 25C4.79883 25 4.79883 31.6167 5.64327 34.7882C5.87155 35.6479 6.32169 36.4325 6.94863 37.0635C7.57557 37.6944 8.35729 38.1496 9.2155 38.3833C12.3662 39.2326 25.0002 39.2326 25.0002 39.2326C25.0002 39.2326 37.6342 39.2326 40.7849 38.3833C41.6431 38.1496 42.4249 37.6944 43.0518 37.0635C43.6787 36.4325 44.1289 35.6479 44.3572 34.7882C45.2016 31.6167 45.2016 25 45.2016 25C45.2016 25 45.2016 18.3833 44.3572 15.2125Z" fill="#EA5A47"/>
<path d="M20.8682 31.0069L31.4279 25L20.8682 18.993V31.0069Z" fill="white"/>
<path d="M44.3572 15.2125C44.1289 14.3528 43.6787 13.5682 43.0518 12.9372C42.4249 12.3063 41.6431 11.8511 40.7849 11.6174C37.6342 10.7674 25.0002 10.7674 25.0002 10.7674C25.0002 10.7674 12.3662 10.7674 9.2155 11.6174C8.35729 11.8511 7.57557 12.3063 6.94863 12.9372C6.32169 13.5682 5.87155 14.3528 5.64327 15.2125C4.79883 18.3833 4.79883 25 4.79883 25C4.79883 25 4.79883 31.6167 5.64327 34.7882C5.87155 35.6479 6.32169 36.4325 6.94863 37.0635C7.57557 37.6944 8.35729 38.1496 9.2155 38.3833C12.3662 39.2326 25.0002 39.2326 25.0002 39.2326C25.0002 39.2326 37.6342 39.2326 40.7849 38.3833C41.6431 38.1496 42.4249 37.6944 43.0518 37.0635C43.6787 36.4325 44.1289 35.6479 44.3572 34.7882C45.2016 31.6167 45.2016 25 45.2016 25C45.2016 25 45.2016 18.3833 44.3572 15.2125Z" stroke="black" stroke-width="2" stroke-miterlimit="10"/>
<path d="M20.8682 31.007L31.4279 25L20.8682 18.9931V31.007Z" stroke="black" stroke-width="2" stroke-miterlimit="10" stroke-linecap="round" stroke-linejoin="round"/>
</svg>
